<?xml version="1.0" encoding="UTF-8" standalone="no"?>
<!-- Created with Inkscape (http://www.inkscape.org/) -->

<svg
   width="449.6489mm"
   height="199.12343mm"
   viewBox="0 0 449.64889 199.12343"
   version="1.1"
   id="svg15730"
   inkscape:version="1.2.1 (9c6d41e, 2022-07-14)"
   sodipodi:docname="cat0freebyz-main.svg"
   xmlns:inkscape="http://www.inkscape.org/namespaces/inkscape"
   xmlns:sodipodi="http://sodipodi.sourceforge.net/DTD/sodipodi-0.dtd"
   xmlns:xlink="http://www.w3.org/1999/xlink"
   xmlns="http://www.w3.org/2000/svg"
   xmlns:svg="http://www.w3.org/2000/svg"
   xmlns:rdf="http://www.w3.org/1999/02/22-rdf-syntax-ns#"
   xmlns:cc="http://creativecommons.org/ns#"
   xmlns:dc="http://purl.org/dc/elements/1.1/">
  <defs
     id="defs15724">
    <marker
       inkscape:isstock="true"
       style="overflow:visible"
       id="marker18288"
       refX="0"
       refY="0"
       orient="auto"
       inkscape:stockid="Arrow1Lend">
      <path
         transform="matrix(-0.8,0,0,-0.8,-10,0)"
         style="fill:#000000;fill-opacity:1;fill-rule:evenodd;stroke:#000000;stroke-width:1.00000003pt;stroke-opacity:1"
         d="M 0,0 5,-5 -12.5,0 5,5 Z"
         id="path18286"
         inkscape:connector-curvature="0" />
    </marker>
    <marker
       inkscape:stockid="Arrow1Lstart"
       orient="auto"
       refY="0"
       refX="0"
       id="Arrow1Lstart"
       style="overflow:visible"
       inkscape:isstock="true">
      <path
         id="path895"
         d="M 0,0 5,-5 -12.5,0 5,5 Z"
         style="fill:#000000;fill-opacity:1;fill-rule:evenodd;stroke:#000000;stroke-width:1.00000003pt;stroke-opacity:1"
         transform="matrix(0.8,0,0,0.8,10,0)"
         inkscape:connector-curvature="0" />
    </marker>
    <marker
       inkscape:stockid="Arrow1Lend"
       orient="auto"
       refY="0"
       refX="0"
       id="marker17621"
       style="overflow:visible"
       inkscape:isstock="true"
       inkscape:collect="always">
      <path
         id="path17619"
         d="M 0,0 5,-5 -12.5,0 5,5 Z"
         style="fill:#000000;fill-opacity:1;fill-rule:evenodd;stroke:#000000;stroke-width:1.00000003pt;stroke-opacity:1"
         transform="matrix(-0.8,0,0,-0.8,-10,0)"
         inkscape:connector-curvature="0" />
    </marker>
    <marker
       inkscape:stockid="Arrow1Lend"
       orient="auto"
       refY="0"
       refX="0"
       id="Arrow1Lend"
       style="overflow:visible"
       inkscape:isstock="true">
      <path
         id="path898"
         d="M 0,0 5,-5 -12.5,0 5,5 Z"
         style="fill:#000000;fill-opacity:1;fill-rule:evenodd;stroke:#000000;stroke-width:1.00000003pt;stroke-opacity:1"
         transform="matrix(-0.8,0,0,-0.8,-10,0)"
         inkscape:connector-curvature="0" />
    </marker>
    <marker
       inkscape:isstock="true"
       style="overflow:visible"
       id="marker16647"
       refX="0"
       refY="0"
       orient="auto"
       inkscape:stockid="Arrow1Lend">
      <path
         transform="matrix(-0.8,0,0,-0.8,-10,0)"
         style="fill:#000000;fill-opacity:1;fill-rule:evenodd;stroke:#000000;stroke-width:1.00000003pt;stroke-opacity:1"
         d="M 0,0 5,-5 -12.5,0 5,5 Z"
         id="path16645"
         inkscape:connector-curvature="0" />
    </marker>
    <marker
       inkscape:stockid="Arrow1Mend"
       orient="auto"
       refY="0"
       refX="0"
       id="Arrow1Mend"
       style="overflow:visible"
       inkscape:isstock="true">
      <path
         id="path904"
         d="M 0,0 5,-5 -12.5,0 5,5 Z"
         style="fill:#000000;fill-opacity:1;fill-rule:evenodd;stroke:#000000;stroke-width:1.00000003pt;stroke-opacity:1"
         transform="matrix(-0.4,0,0,-0.4,-4,0)"
         inkscape:connector-curvature="0" />
    </marker>
    <marker
       inkscape:isstock="true"
       style="overflow:visible"
       id="marker16412"
       refX="0"
       refY="0"
       orient="auto"
       inkscape:stockid="EmptyDiamondL">
      <path
         transform="scale(0.8)"
         style="fill:#ffffff;fill-rule:evenodd;stroke:#000000;stroke-width:1.00000003pt;stroke-opacity:1"
         d="M 0,-7.0710768 -7.0710894,0 0,7.0710589 7.0710462,0 Z"
         id="path16410"
         inkscape:connector-curvature="0" />
    </marker>
    <marker
       inkscape:stockid="EmptyDiamondL"
       orient="auto"
       refY="0"
       refX="0"
       id="EmptyDiamondL"
       style="overflow:visible"
       inkscape:isstock="true"
       inkscape:collect="always">
      <path
         id="path1001"
         d="M 0,-7.0710768 -7.0710894,0 0,7.0710589 7.0710462,0 Z"
         style="fill:#ffffff;fill-rule:evenodd;stroke:#000000;stroke-width:1.00000003pt;stroke-opacity:1"
         transform="scale(0.8)"
         inkscape:connector-curvature="0" />
    </marker>
    <linearGradient
       inkscape:collect="always"
       id="linearGradient16356">
      <stop
         style="stop-color:#000000;stop-opacity:0.05882353"
         offset="0"
         id="stop16352" />
      <stop
         style="stop-color:#cccccc;stop-opacity:0"
         offset="1"
         id="stop16354" />
    </linearGradient>
    <radialGradient
       inkscape:collect="always"
       xlink:href="#linearGradient16356"
       id="radialGradient16360"
       cx="395.08682"
       cy="377.46854"
       fx="395.08682"
       fy="377.46854"
       r="208.37083"
       gradientTransform="matrix(3.0191279,2.7314211,-1.9372839,2.1413437,-66.467126,-1509.9699)"
       gradientUnits="userSpaceOnUse" />
  </defs>
  <sodipodi:namedview
     id="base"
     pagecolor="#ffffff"
     bordercolor="#666666"
     borderopacity="1.0"
     inkscape:pageopacity="0.0"
     inkscape:pageshadow="2"
     inkscape:zoom="0.7"
     inkscape:cx="1325.7143"
     inkscape:cy="248.57143"
     inkscape:document-units="mm"
     inkscape:current-layer="layer1"
     showgrid="false"
     fit-margin-left="60"
     fit-margin-right="60"
     fit-margin-top="2"
     fit-margin-bottom="2"
     inkscape:window-width="1309"
     inkscape:window-height="878"
     inkscape:window-x="222"
     inkscape:window-y="44"
     inkscape:window-maximized="0"
     inkscape:showpageshadow="2"
     inkscape:pagecheckerboard="0"
     inkscape:deskcolor="#d1d1d1" />
  <metadata
     id="metadata15727">
    <rdf:RDF>
      <cc:Work
         rdf:about="">
        <dc:format>image/svg+xml</dc:format>
        <dc:type
           rdf:resource="http://purl.org/dc/dcmitype/StillImage" />
      </cc:Work>
    </rdf:RDF>
  </metadata>
  <g
     inkscape:label="Layer 1"
     inkscape:groupmode="layer"
     id="layer1"
     transform="translate(125.50095,-19.586977)">
    <path
       style="fill:#000000;fill-opacity:0.05882353;stroke:none;stroke-width:0.26458332px;stroke-linecap:butt;stroke-linejoin:miter;stroke-opacity:1"
       d="m -34.160913,80.86666 c 14.835088,-0.95026 31.688996,-4.81729 44.692277,4.67943 6.527087,4.35643 4.748254,12.9162 3.888031,19.46785 -1.579629,9.37657 6.223603,18.51659 15.608924,19.0285 8.136469,1.0413 16.282289,-1.60421 24.387739,0.33303 10.97959,1.55136 23.41141,7.15337 26.70671,18.66892 1.84091,9.9305 -6.8462,17.38069 -8.74803,26.55333 -5.92346,10.69937 0.86011,24.7856 -7.70187,34.45751 -14.70597,17.52317 -44.385005,16.19198 -59.619661,0.06 -8.306445,-8.53178 -15.720815,-19.57929 -28.106834,-22.2984 -10.438905,-3.37159 -22.691471,-9.71033 -24.366874,-21.75565 -1.360083,-9.13084 6.876364,-15.37833 13.972203,-19.19734 7.151892,-4.15893 15.389474,-9.10215 16.840097,-18.0293 1.894242,-7.46287 -4.171759,-14.60617 -11.423028,-15.7211 -7.859548,-1.89965 -17.998821,-0.45282 -23.217402,-8.00822 -3.75836,-5.07935 -0.686094,-12.16768 4.712499,-14.55822 3.786583,-2.11279 8.074791,-3.26471 12.375219,-3.68034 z"
       id="path16275"
       inkscape:connector-curvature="0" />
    <path
       inkscape:connector-curvature="0"
       id="path16304"
       d="m 177.42634,22.695742 c 10.38457,-0.665182 22.1823,-3.372103 31.2846,3.275601 4.56895,3.049501 3.32377,9.04134 2.72162,13.627495 -1.10574,6.563599 4.35652,12.961613 10.92624,13.31995 5.69553,0.72891 11.39761,-1.122947 17.07142,0.233121 7.68571,1.085952 16.38799,5.007359 18.6947,13.068244 1.28864,6.95135 -4.79234,12.166483 -6.12362,18.587331 -4.14642,7.489559 0.60207,17.349916 -5.39131,24.120256 -10.29418,12.26622 -31.0695,11.33438 -41.73376,0.042 -5.81451,-5.97225 -11.00457,-13.705502 -19.67478,-15.608879 -7.30724,-2.360113 -15.88403,-6.797231 -17.05682,-15.228955 -0.95206,-6.391588 4.81346,-10.764831 9.78055,-13.438138 5.00632,-2.911251 10.77263,-6.371505 11.78806,-12.62051 1.32597,-5.224009 -2.92023,-10.224319 -7.99612,-11.00477 -5.50168,-1.329755 -12.59918,-0.316974 -16.25218,-5.605754 -2.63085,-3.555545 -0.48026,-8.517376 3.29875,-10.190754 2.6506,-1.478953 5.65235,-2.285297 8.66265,-2.576238 z"
       style="fill:#000000;fill-opacity:0.05882353;stroke:none;stroke-width:0.18520832px;stroke-linecap:butt;stroke-linejoin:miter;stroke-opacity:1" />
    <g
       id="g16322"
       style="stroke:none;stroke-opacity:1">
      <path
         inkscape:connector-curvature="0"
         id="path16300"
         d="M 48.758927,66.434522 156.86012,157.90476"
         style="fill:none;stroke:none;stroke-width:0.26458332px;stroke-linecap:butt;stroke-linejoin:miter;stroke-opacity:1" />
      <path
         style="fill:none;stroke:none;stroke-width:0.26458332px;stroke-linecap:butt;stroke-linejoin:miter;stroke-opacity:1"
         d="M 52.160713,42.244046 160.26191,133.71428"
         id="path16302"
         inkscape:connector-curvature="0" />
      <path
         inkscape:connector-curvature="0"
         id="path16314"
         d="M 52.160712,42.244047 48.758927,66.434522"
         style="fill:#000000;fill-opacity:0.05882353;stroke:none;stroke-width:0.26458332px;stroke-linecap:butt;stroke-linejoin:miter;stroke-opacity:1" />
      <path
         inkscape:connector-curvature="0"
         id="path16316"
         d="m 160.26191,133.71428 -3.40179,24.19048"
         style="fill:none;stroke:none;stroke-width:0.26458332px;stroke-linecap:butt;stroke-linejoin:miter;stroke-opacity:1" />
    </g>
    <path
       style="fill:url(#radialGradient16360);fill-opacity:1;stroke:#cccccc;stroke-width:9.31275558;stroke-miterlimit:4;stroke-dasharray:111.75307228, 111.75307228;stroke-dashoffset:0;stroke-opacity:0"
       d="M 391,424.46533 C 281,331.38204 189.80311,254.04285 188.34024,252.60047 c -2.59305,-2.55675 -2.50736,-3.71832 3.41622,-46.31116 4.21573,-30.31273 6.56088,-43.3941 7.65976,-42.7266 1.64667,1.00025 398.27765,336.17212 402.62175,340.23435 2.332,2.18068 2.15254,4.566 -3.28977,43.72885 -3.16597,22.78229 -6.20449,42.49322 -6.75226,43.80205 C 591.2094,593.20731 548.94886,558.1235 391,424.46533 Z"
       id="path16324"
       inkscape:connector-curvature="0"
       transform="scale(0.26458333)" />
    <path
       style="fill:none;stroke:#000000;stroke-width:0.26499999;stroke-linecap:butt;stroke-linejoin:miter;stroke-miterlimit:4;stroke-dasharray:none;stroke-opacity:1;marker-mid:url(#EmptyDiamondL)"
       d="M 48.758927,66.434522 156.86012,157.90476"
       id="path16362"
       inkscape:connector-curvature="0" />
    <path
       inkscape:connector-curvature="0"
       id="path16408"
       d="M 52.160712,42.244047 160.2619,133.71429"
       style="fill:none;stroke:#000000;stroke-width:0.26499999;stroke-linecap:butt;stroke-linejoin:miter;stroke-miterlimit:4;stroke-dasharray:none;stroke-opacity:1;marker-mid:url(#marker16412)" />
    <path
       style="fill:none;stroke:#000000;stroke-width:0.76499999;stroke-linecap:butt;stroke-linejoin:miter;stroke-miterlimit:4;stroke-dasharray:none;stroke-opacity:1"
       d="m -23.955556,80.1107 c -3.263729,17.18648 9.940836,30.01807 15.937872,32.36725 8.386383,4.35236 15.984928,13.60608 13.738198,23.56955 -9.676038,28.79525 -5.609299,44.44427 21.246289,57.52183 11.084941,5.61126 23.074245,9.06203 34.878235,12.78542"
       id="path16504"
       inkscape:connector-curvature="0"
       sodipodi:nodetypes="ccccc" />
    <path
       style="fill:none;stroke:#000000;stroke-width:0.7713722;stroke-linecap:butt;stroke-linejoin:miter;stroke-miterlimit:4;stroke-dasharray:none;stroke-opacity:1"
       d="m 222.35744,52.921088 c -5.39484,2.825426 -9.75398,12.274207 -11.59718,18.500859 -1.23179,5.062285 -1.98408,10.326851 -4.26833,15.061476 -3.0642,4.74348 -8.62181,6.762866 -13.43746,9.252503 -0.44639,0.275047 -0.90576,0.459961 -1.42016,0.556252"
       id="path16520"
       inkscape:connector-curvature="0"
       sodipodi:nodetypes="ccccc" />
    <path
       style="fill:none;stroke:#000000;stroke-width:0.26458332;stroke-linecap:butt;stroke-linejoin:miter;stroke-miterlimit:4;stroke-dasharray:3.17499981, 3.17499981;stroke-dashoffset:0;stroke-opacity:1;marker-end:url(#marker18288)"
       d="m 87.130199,106.03076 c -16.320782,1.97757 -33.161485,5.73866 -46.462234,15.95297 -7.77481,5.33234 -16.337633,9.54885 -23.463362,15.79705"
       id="path17547"
       inkscape:connector-curvature="0" />
    <path
       style="fill:none;stroke:#000000;stroke-width:0.27365959;stroke-linecap:butt;stroke-linejoin:miter;stroke-miterlimit:4;stroke-dasharray:3.28391498, 3.28391498;stroke-dashoffset:0;stroke-opacity:1;marker-end:url(#marker17621)"
       d="m 121.52604,95.447427 c 24.63336,-0.956365 49.18158,-4.318904 72.51814,-10.04656 1.65384,-0.48019 3.28594,-0.999591 4.88823,-1.563277"
       id="path17549"
       inkscape:connector-curvature="0" />
  </g>
</svg>
