<?xml version="1.0" encoding="utf-8"?>
 <!-- Generator: Adobe Adobe Illustrator 24.2.0, SVG Export Plug-In . SVG Version: 6.00 Build 0)  -->
 <svg version="1.1"
  id="Layer_1"
  xmlns="http://www.w3.org/2000/svg"
  xmlns:xlink="http://www.w3.org/1999/xlink"
  x="0px"
  y="0px"
  width="min(640, 95%)"
  height="min(210, 75vh)"
  viewBox="0 0 640 210"
  style="enable-background:new 0 0 640 210;
  isolation: isolate;
  margin: 0 auto"
  xml:space="preserve" >
  <style type="text/css">
    :root {
  line-height: 1.4;
  color-scheme: light dark;
  --rosewater: light-dark(#dc8a78, #f5e0dc);
  --flamingo: light-dark(#dd7878, #f2cdcd);
  --pink: light-dark(#ea76cb, #f5c2e7);
  --mauve: light-dark(#8839ef, #cba6f7);
  --red: light-dark(#d20f39, #f38ba8);
  --maroon: light-dark(#e64553, #eba0ac);
  --peach: light-dark(#fe640b, #fab387);
  --yellow: light-dark(#df8e1d, #f9e2af);
  --green: light-dark(#40a02b, #a6e3a1);
  --teal: light-dark(#179299, #94e2d5);
  --sky: light-dark(#04a5e5, #89dceb);
  --sapphire: light-dark(#209fb5, #74c7ec);
  --blue: light-dark(#1e66f5, #89b4fa);
  --lavender: light-dark(#7287fd, #b4befe);
  --text: light-dark(#4c4f69, #bac2de);
  --subtext1: light-dark(#5c5f77, #a6adc8);
  --subtext0: light-dark(#6c6f85, #cdd6f4);
  --overlay2: light-dark(#7c7f93, #9399b2);
  --overlay1: light-dark(#8c8fa1, #7f849c);
  --overlay0: light-dark(#9ca0b0, #6c7086);
  --surface2: light-dark(#acb0be, #585b70);
  --surface1: light-dark(#bcc0cc, #45475a);
  --surface0: light-dark(#ccd0da, #313244);
  --base: light-dark(#eff1f5, #1e1e2e);
  --mantle: light-dark(#e6e9ef, #181825);
  --crust: light-dark(#dce0e8, #11111b);
}
    .st0 {
      fill: var(--lavender);
       stroke: var(--lavender);
       stroke-miterlimit: 10;
    }
    .st1 {
      fill: var(--surface2);
      stroke: var(--overlay0);
      stroke-miterlimit: 10;
      stroke-width: 5;
      stroke-dasharray: 12, 12, 12, 12, 12, 12;
    }
    .st2 {
      font-family: "SourceSansPro-Regular";
    }     i
    .st3 {
      font-size: 14px;
     }
</style> <circle class="st0" cx="51.55" cy="100.75" r="4.25"/>
<foreignObject width="50" height="50" transform="matrix(1 0 0 1 48.2772
125.7437)" class="st2"><math xmlns = "http://www.w3.org/1998/Math/MathML"
color="var(--blue)"><mi>0</mi></math></foreignObject> <circle
class="st0" cx="101.55" cy="100.75" r="4.25"/> <foreignObject
width="50" height="50" transform="matrix(1 0 0 1 98.2772 125.7437)"
class="st2"><math xmlns = "http://www.w3.org/1998/Math/MathML"
color="var(--blue)"><mi>1</mi></math></foreignObject> <circle
class="st0" cx="151.55" cy="100.75" r="4.25"/> <foreignObject
width="50" height="50" transform="matrix(1 0 0 1 148.2772 125.7437)"
class="st2"><math xmlns = "http://www.w3.org/1998/Math/MathML"
color="var(--blue)"><mi>2</mi></math></foreignObject> <circle
class="st0" cx="201.55" cy="100.75" r="4.25"/> <foreignObject
width="50" height="50" transform="matrix(1 0 0 1 198.2772 125.7437)"
class="st2"><math xmlns = "http://www.w3.org/1998/Math/MathML"
color="var(--blue)"><mi>3</mi></math></foreignObject> <ellipse
class="st0" cx="251.55" cy="100.65" rx="4.25" ry="4.15"/> <foreignObject
width="50" height="50" transform="matrix(1.0248 0 0 1 248.2773
125.0361)" class="st2"><math xmlns = "http://www.w3.org/1998/Math/MathML"
color="var(--blue)"><mi>4</mi></math></foreignObject> <ellipse
class="st0" cx="301.55" cy="100.65" rx="4.25" ry="4.15"/> <foreignObject
width="50" height="50" transform="matrix(1.0248 0 0 1 298.2773
125.0361)" class="st2"><math xmlns = "http://www.w3.org/1998/Math/MathML"
color="var(--blue)"><mi>5</mi></math></foreignObject> <ellipse
class="st0" cx="351.55" cy="100.65" rx="4.25" ry="4.15"/> <foreignObject
width="50" height="50" transform="matrix(1.0248 0 0 1 348.2773
125.0361)" class="st2"><math xmlns = "http://www.w3.org/1998/Math/MathML"
color="var(--blue)"><mi>6</mi></math></foreignObject> <ellipse
class="st0" cx="401.55" cy="100.65" rx="4.25" ry="4.15"/> <foreignObject
width="50" height="50" transform="matrix(1.0248 0 0 1 398.2773
125.0361)" class="st2"><math xmlns = "http://www.w3.org/1998/Math/MathML"
color="var(--blue)"><mi>7</mi></math></foreignObject> <ellipse
class="st0" cx="451.55" cy="98.65" rx="4.25" ry="4.15"/> <foreignObject
width="50" height="50" transform="matrix(1.0248 0 0 1 448.2773
123.0361)" class="st2"><math xmlns = "http://www.w3.org/1998/Math/MathML"
color="var(--blue)"><mi>8</mi></math></foreignObject> <ellipse
class="st0" cx="501.55" cy="98.65" rx="4.25" ry="4.15"/> <foreignObject
width="50" height="50" transform="matrix(1.0248 0 0 1 498.2773
123.0361)" class="st2"><math xmlns = "http://www.w3.org/1998/Math/MathML"
color="var(--blue)"><mi>9</mi></math></foreignObject> <ellipse
class="st0" cx="522.55" cy="98.65" rx="4.25" ry="4.15"/> <foreignObject
width="50" height="50" transform="matrix(1.0248 0 0 1 519.2773
123.0361)" class="st2"><math xmlns = "http://www.w3.org/1998/Math/MathML"
color="var(--blue)"><mi>10</mi></math></foreignObject> <ellipse
class="st0" cx="543.55" cy="98.65" rx="4.25" ry="4.15"/> <foreignObject
width="50" height="50" transform="matrix(1.0248 0 0 1 555.2773
123.0361)" class="st2"><math xmlns = "http://www.w3.org/1998/Math/MathML"
color="var(--blue)"><mi>...</mi></math></foreignObject> <ellipse class="st0"
cx="564.55" cy="98.65" rx="4.25" ry="4.15"/> <circle class="st0" cx="596.3"
cy="98.65" r="11.5"/> <foreignObject transform="matrix(1.0248 0 0 1
590.1705 123.0361)" class="st2" width="50" height="50"> <math xmlns =
"http://www.w3.org/1998/Math/MathML" color="var(--blue)"><mi>ω</mi></math>
</foreignObject> </svg>
