<?xml version="1.0" encoding="UTF-8" standalone="no"?>
<!-- Created with Inkscape (http://www.inkscape.org/) -->

<svg
   width="210mm"
   height="75mm"
   viewBox="0 0 210 75"
   version="1.1"
   id="svg1"
   inkscape:version="1.2.1 (9c6d41e, 2022-07-14)"
   sodipodi:docname="rank3-main.svg"
   xmlns:inkscape="http://www.inkscape.org/namespaces/inkscape"
   xmlns:sodipodi="http://sodipodi.sourceforge.net/DTD/sodipodi-0.dtd"
   xmlns="http://www.w3.org/2000/svg"
   xmlns:svg="http://www.w3.org/2000/svg">
  <sodipodi:namedview
     id="namedview1"
     pagecolor="#ffffff"
     bordercolor="#000000"
     borderopacity="0.25"
     inkscape:showpageshadow="2"
     inkscape:pageopacity="0.0"
     inkscape:pagecheckerboard="0"
     inkscape:deskcolor="#d1d1d1"
     inkscape:document-units="mm"
     showgrid="true"
     inkscape:zoom="0.66245342"
     inkscape:cx="377.38502"
     inkscape:cy="178.12573"
     inkscape:window-width="913"
     inkscape:window-height="718"
     inkscape:window-x="222"
     inkscape:window-y="44"
     inkscape:window-maximized="0"
     inkscape:current-layer="layer1">
    <inkscape:grid
       id="grid2"
       units="mm"
       originx="0"
       originy="0"
       spacingx="0.99999998"
       spacingy="1"
       empcolor="#0099e5"
       empopacity="0.30196078"
       color="#0099e5"
       opacity="0.14901961"
       empspacing="5"
       dotted="false"
       gridanglex="30"
       gridanglez="30"
       visible="true" />
  </sodipodi:namedview>
  <defs
     id="defs1" />
  <g
     inkscape:label="Layer 1"
     inkscape:groupmode="layer"
     id="layer1">
    <path
       style="fill:none;stroke:#000000;stroke-width:0.299509;stroke-linecap:butt;stroke-linejoin:miter;stroke-miterlimit:4;stroke-dasharray:none;stroke-opacity:1"
       d="m 93.330185,37.099074 2.21563,-1.262427 -0.39141,2.220759"
       id="path290-0-7"
       inkscape:transform-center-x="-0.92326661"
       inkscape:transform-center-y="0.33159856"
       inkscape:export-filename="MapRank3.png"
       inkscape:export-xdpi="600"
       inkscape:export-ydpi="600" />
    <path
       style="fill:none;stroke:#000000;stroke-width:0.281707;stroke-linecap:butt;stroke-linejoin:miter;stroke-miterlimit:4;stroke-dasharray:none;stroke-opacity:1"
       d="m 107.16516,38.027534 -0.52457,-2.131239 2.09145,1.032635"
       id="path290-6-8" />
    <path
       style="fill:none;fill-opacity:0.331606;stroke:#000000;stroke-width:0.649127"
       d="m 56.09217,45.010031 23.925625,-0.09195"
       id="path1" />
    <path
       style="fill:none;fill-opacity:0.331606;stroke:#000000;stroke-width:0.428094"
       d="m 78.457405,42.673544 1.88947,2.595234 -2.01688,2.297669"
       id="path2" />
    <path
       style="fill:none;fill-opacity:0.331606;stroke:#000000;stroke-width:0.589"
       d="m 125.22783,45.067471 26.68926,-0.121815"
       id="path1-1"
       sodipodi:nodetypes="cc" />
    <path
       style="fill:none;fill-opacity:0.331606;stroke:#000000;stroke-width:0.428094"
       d="m 149.95299,42.452045 1.88947,2.595234 -2.01688,2.297669"
       id="path2-7" />
    <path
       style="fill:none;fill-opacity:1;stroke:#000000;stroke-width:0.534001;stroke-dasharray:none;stroke-opacity:1"
       d="M 49.607729,50.809462 C 51.258812,64.729672 158.30266,62.543776 161.43764,50.02494"
       id="path13"
       sodipodi:nodetypes="cc" />
    <path
       style="fill:none;fill-opacity:0.331606;stroke:#000000;stroke-width:0.428094"
       d="m 157.02407,50.395261 4.50312,-0.70329 1.11016,4.467648"
       id="path2-5"
       sodipodi:nodetypes="ccc" />
    <path
       style="fill:none;fill-opacity:1;stroke:#000000;stroke-width:0.5;stroke-dasharray:none;stroke-opacity:1"
       d="m 16.543409,23.006852 c 0.110292,-0.952544 0.09345,-1.061255 0.370183,-2.098997 0.05063,-0.189817 0.203167,-0.354542 0.216823,-0.549977 3.28e-4,-0.0054 -0.199709,0.100637 -0.200957,0.100917 -0.137393,0.03075 -0.278958,0.04134 -0.417778,0.06559 -0.726407,0.126981 -1.416536,0.304611 -2.16293,0.297696 -0.298191,-0.0028 -1.166056,-0.226206 -0.88315,-0.136238 0.130467,0.04149 0.244256,0.734205 0.248551,0.756851 0.315327,1.662638 -0.03083,2.982347 -0.460086,4.63696 -0.181827,0.700879 -0.04106,0.677887 0.05817,0.01513"
       id="path23" />
    <path
       style="fill:none;fill-opacity:1;stroke:#000000;stroke-width:0.473826;stroke-dasharray:none;stroke-opacity:1"
       d="m 84.234365,22.87503 c 0.1018,-0.893509 0.0863,-0.995483 0.34135,-1.968908 0.0466,-0.178053 0.18735,-0.332568 0.19993,-0.51589 3.1e-4,-0.005 -0.18415,0.09439 -0.18531,0.09465 -0.12669,0.02885 -0.25722,0.03876 -0.38524,0.06152 -0.66984,0.11911 -1.30622,0.285731 -1.99448,0.279244 -0.27499,-0.0026 -1.07526,-0.212186 -0.81438,-0.127795 0.12032,0.03891 0.22524,0.688702 0.22919,0.709944 0.29078,1.559593 -0.0283,2.79751 -0.42425,4.349577 -0.16768,0.657438 -0.0378,0.63587 0.0537,0.0142"
       id="path23-3" />
    <path
       style="fill:none;fill-opacity:1;stroke:#000000;stroke-width:0.5;stroke-dasharray:none;stroke-opacity:1"
       d="m 196.12119,23.11121 c 0.10173,-0.995025 0.0861,-1.108585 0.34145,-2.192607 0.0466,-0.198282 0.18742,-0.370354 0.20001,-0.574504 3e-4,-0.0056 -0.18421,0.10512 -0.18538,0.105409 -0.12673,0.03214 -0.2573,0.04318 -0.38536,0.06852 -0.67006,0.132645 -1.30664,0.318196 -1.99513,0.310971 -0.27507,-0.0029 -1.0756,-0.236292 -0.81463,-0.142312 0.1203,0.04333 0.2253,0.766949 0.22926,0.790604 0.29086,1.736788 -0.0284,3.115351 -0.4244,4.843756 -0.16773,0.732136 -0.0379,0.708117 0.0538,0.01581"
       id="path23-35" />
    <path
       style="fill:none;fill-opacity:1;stroke:#000000;stroke-width:0.473826;stroke-dasharray:none;stroke-opacity:1"
       d="m 87.336065,19.990706 c -0.0348,0.186848 -0.0401,0.384366 -0.10433,0.560544 -0.22895,0.628623 -0.51254,1.055537 -0.8239,1.611051 -0.10713,0.191145 -0.25992,0.366382 -0.29862,0.589611 -0.006,0.03402 0.0288,-0.06089 0.0431,-0.09136"
       id="path27" />
    <path
       style="fill:none;fill-opacity:1;stroke:#030100;stroke-width:0.507;stroke-dasharray:none;stroke-opacity:0.834197"
       d="m 68.463245,49.21953 c 0.130873,-0.615041 0.409619,-1.242622 0.392588,-1.845123 -0.01761,-0.622718 -1.116828,-0.437225 -1.368943,0.0039 -0.593264,1.037922 0.0596,2.30874 -0.152507,3.362644 -0.08639,0.429197 -2.556045,3.85308 -2.012598,1.987933"
       id="path207-7" />
    <path
       style="fill:none;fill-opacity:1;stroke:#030100;stroke-width:0.507;stroke-dasharray:none;stroke-opacity:0.834197"
       d="m 65.788492,50.679897 c 2.645431,-0.239293 1.378199,0.04658 3.746546,-0.939309"
       id="path208-0" />
    <path
       style="fill:none;stroke:#000000;stroke-width:0.548;stroke-dasharray:none;stroke-opacity:0.834197"
       d="m 144.96328,49.684069 c -0.26608,0.06937 -0.52278,0.158207 -0.79822,0.208117 -0.49398,0.08951 -2.66928,-0.06385 -2.80211,-0.01686 -0.48942,0.173065 -0.74316,2.027402 0.38664,2.28366 1.25383,0.284391 1.40037,-1.45215 1.39273,-1.853362 -0.004,-0.156886 -0.0991,-0.347158 0.0458,-0.469669 0.0299,-0.02524 0.0277,0.06187 0.0415,0.09281"
       id="path6" />
    <path
       style="fill:none;stroke:#000000;stroke-width:0.35;stroke-dasharray:none;stroke-opacity:0.834197"
       d="m 128.24792,27.435696 c 0.33345,0.504296 0.23431,0.276685 0.26024,1.154904 0.009,0.293459 -0.0253,0.584884 -0.0375,0.877356 -0.006,0.141425 -0.017,0.282567 -0.0168,0.424306 4.4e-4,0.300505 0.0564,0.377659 0.0687,0.374879 0.0689,-0.0156 0.0241,-0.265515 0.0227,-0.2914 -0.0182,-0.323683 0.3463,-1.072005 0.97432,-1.067215 0.61818,0.0049 0.91173,1.248475 0.32054,1.340547 -0.59862,0.09323 -1.08169,-0.0463 -1.63014,-0.20048"
       id="path38" />
    <path
       style="fill:none;stroke:#000000;stroke-width:0.35;stroke-dasharray:none;stroke-opacity:1"
       d="m 128.41774,42.194274 c 0.59291,0.274447 1.49566,-0.08885 1.81582,-0.435192 0.0254,-0.02743 0.16468,-0.180341 0.16331,-0.240753 -0.003,-0.09574 -0.0765,-0.129762 -0.17814,-0.194297 -0.16226,-0.103008 -0.29134,-0.112766 -0.54862,-0.133516 -0.5302,-0.04283 -1.61114,0.662694 -1.24225,1.476837 0.14811,0.327055 0.89135,0.48058 1.34331,0.277055 0.10436,-0.04697 0.40145,-0.199735 0.54801,-0.302484 0.11063,-0.07756 0.30337,-0.188386 0.30571,-0.307452"
       id="path90"
       sodipodi:nodetypes="cccsccssc" />
    <path
       style="fill:none;stroke:#000000;stroke-width:0.35;stroke-dasharray:none;stroke-opacity:0.834197"
       d="m 145.47816,22.653755 c 0.33345,0.504295 0.23431,0.276685 0.26024,1.154904 0.009,0.293459 -0.0253,0.584884 -0.0375,0.877356 -0.006,0.141425 -0.017,0.282566 -0.0168,0.424306 4.4e-4,0.300504 0.0564,0.377659 0.0687,0.374879 0.0689,-0.0156 0.0241,-0.265516 0.0227,-0.2914 -0.0182,-0.323683 0.34631,-1.072005 0.97433,-1.067215 0.61817,0.0049 0.91172,1.248474 0.32053,1.340547 -0.59862,0.09323 -1.08169,-0.0463 -1.63014,-0.200481"
       id="path38-0" />
    <path
       style="fill:none;stroke:#000000;stroke-width:0.35;stroke-dasharray:none;stroke-opacity:1"
       d="m 145.63627,33.71229 c 0.59291,0.274447 1.49566,-0.08886 1.81582,-0.435192 0.0254,-0.02743 0.16468,-0.180341 0.16331,-0.240753 -0.003,-0.09574 -0.0765,-0.129762 -0.17814,-0.194297 -0.16226,-0.103008 -0.29134,-0.112766 -0.54863,-0.133516 -0.53018,-0.04283 -1.61113,0.66269 -1.24224,1.476836 0.14811,0.327056 0.89135,0.480581 1.34331,0.277056 0.10436,-0.04697 0.40145,-0.199735 0.54801,-0.302484 0.11062,-0.07756 0.30337,-0.188386 0.30571,-0.307452"
       id="path90-6"
       sodipodi:nodetypes="cscsccssc" />
    <path
       style="fill:none;fill-opacity:1;stroke:#000000;stroke-width:0.382233;stroke-dasharray:none;stroke-opacity:1"
       d="m 147.87046,21.892184 c -0.14646,0.02652 -0.29327,0.07259 -0.43935,0.07961 -0.52121,0.02513 -0.90777,-0.03122 -1.39611,-0.07149 -0.16803,-0.01386 -0.33597,-0.05783 -0.51021,-0.0245 -0.0266,0.005 0.0522,0.0014 0.0783,0.002"
       id="path27-3" />
    <path
       style="fill:none;fill-opacity:1;stroke:#000000;stroke-width:0.382233;stroke-dasharray:none;stroke-opacity:1"
       d="m 147.82066,26.854568 c -0.14646,0.02652 -0.29327,0.07259 -0.43936,0.07961 -0.5212,0.02513 -0.90777,-0.03122 -1.3961,-0.07149 -0.16804,-0.01386 -0.33597,-0.05783 -0.51021,-0.0245 -0.0266,0.005 0.0522,0.0014 0.0782,0.002"
       id="path27-3-6" />
    <path
       style="fill:none;fill-opacity:1;stroke:#000000;stroke-width:0.382233;stroke-dasharray:none;stroke-opacity:1"
       d="m 148.14418,35.927718 c -0.14647,0.02652 -0.29328,0.07259 -0.43936,0.07961 -0.5212,0.02513 -0.90777,-0.03122 -1.39611,-0.07149 -0.16803,-0.01386 -0.33596,-0.05783 -0.51021,-0.0245 -0.0266,0.005 0.0522,0.0014 0.0783,0.002"
       id="path27-3-3" />
    <path
       style="fill:none;stroke:#000000;stroke-width:0.4;stroke-dasharray:none;stroke-opacity:0.834197"
       d="m 60.547983,38.06742 c -0.05836,1.35737 -0.260805,2.765819 -0.02239,4.118425 0.07612,0.431858 0.293982,0.608378 0.626991,0.329604"
       id="path53-5-6" />
    <path
       style="fill:none;stroke:#000000;stroke-width:0.4;stroke-dasharray:none;stroke-opacity:0.834197"
       d="m 60.415026,40.768005 c -0.431241,-0.357812 -1.108594,-0.2562 -1.540073,0.02616 -0.784317,0.809157 0.272204,2.403944 1.231552,1.717903 0.176522,-0.126198 0.301896,-0.341202 0.43825,-0.509392"
       id="path54-5-3"
       sodipodi:nodetypes="cscc" />
    <path
       style="fill:none;stroke:#000000;stroke-width:0.4;stroke-dasharray:none;stroke-opacity:1"
       d="m 71.839514,41.019915 c -1.933717,-2.912635 -3.346866,4.072291 0.160531,1.041796"
       id="path14-3-2"
       sodipodi:nodetypes="cc" />
    <path
       style="fill:none;fill-opacity:1;stroke:#000000;stroke-width:0.379301;stroke-dasharray:none;stroke-opacity:1"
       d="m 72.100878,39.326143 c -0.1169,0.03271 -0.23407,0.08955 -0.35067,0.09822 -0.415986,0.031 -0.724526,-0.03851 -1.114286,-0.0882 -0.13412,-0.0171 -0.26816,-0.07135 -0.40723,-0.03022 -0.0212,0.0061 0.0416,0.0016 0.0624,0.0024"
       id="path27-3-3-1" />
    <path
       style="fill:none;stroke:#000000;stroke-width:0.260103;stroke-dasharray:none"
       d="m 134.28354,24.461546 h 7.69756"
       id="path7" />
    <path
       style="fill:none;stroke:#000000;stroke-width:0.260103;stroke-dasharray:none"
       d="m 140.79686,23.177443 1.06582,1.375824 -1.06582,1.375826"
       id="path8" />
    <path
       style="fill:none;stroke:#000000;stroke-width:0.260103;stroke-dasharray:none"
       d="m 134.294,28.833315 h 7.69757"
       id="path7-8" />
    <path
       style="fill:none;stroke:#000000;stroke-width:0.260103;stroke-dasharray:none"
       d="m 140.80733,27.549212 1.06582,1.375824 -1.06582,1.375826"
       id="path8-2" />
    <path
       style="fill:none;stroke:#000000;stroke-width:0.260103;stroke-dasharray:none"
       d="m 134.22128,33.497553 h 7.69756"
       id="path7-80" />
    <path
       style="fill:none;stroke:#000000;stroke-width:0.260103;stroke-dasharray:none"
       d="m 140.7346,32.21345 1.06582,1.375824 -1.06582,1.375826"
       id="path8-4" />
    <path
       style="fill:none;stroke:#000000;stroke-width:0.260103;stroke-dasharray:none"
       d="m 134.23174,37.869322 h 7.69756"
       id="path7-8-8" />
    <path
       style="fill:none;stroke:#000000;stroke-width:0.260103;stroke-dasharray:none"
       d="m 140.74506,36.585219 1.06582,1.375824 -1.06582,1.375826"
       id="path8-2-9" />
    <path
       style="fill:none;stroke:#000000;stroke-width:0.260103;stroke-dasharray:none"
       d="m 134.31553,41.978814 h 7.69756"
       id="path7-8-8-4" />
    <path
       style="fill:none;stroke:#000000;stroke-width:0.260103;stroke-dasharray:none"
       d="m 140.82885,40.694712 1.06582,1.375823 -1.06582,1.375826"
       id="path8-2-9-7" />
    <path
       style="fill:none;stroke:#000000;stroke-width:0.314495;stroke-dasharray:none"
       d="m 62.550304,40.938177 h 6.43447"
       id="path7-3" />
    <path
       style="fill:none;stroke:#000000;stroke-width:0.314495;stroke-dasharray:none"
       d="m 67.994854,39.710196 0.89093,1.315693 -0.89093,1.315702"
       id="path8-20" />
    <path
       style="fill:none;stroke:#000000;stroke-width:0.4;stroke-dasharray:none;stroke-opacity:0.834197"
       d="m 75.195786,38.181717 c -0.0584,1.35737 -0.26081,2.765819 -0.0224,4.118425 0.0761,0.431858 0.29399,0.608378 0.627,0.329604"
       id="path53-5-6-6" />
    <path
       style="fill:none;stroke:#000000;stroke-width:0.4;stroke-dasharray:none;stroke-opacity:0.834197"
       d="m 75.062826,40.882302 c -0.43124,-0.357812 -1.1086,-0.2562 -1.540066,0.02616 -0.78432,0.809157 0.272196,2.403944 1.231546,1.717903 0.17652,-0.126198 0.30189,-0.341202 0.43825,-0.509392"
       id="path54-5-3-3"
       sodipodi:nodetypes="cscc" />
    <path
       style="fill:none;stroke:#000000;stroke-width:0.35;stroke-dasharray:none;stroke-opacity:0.834197"
       d="m 147.17418,27.45457 c -0.0469,0.907767 -0.20946,1.849693 -0.018,2.754274 0.0611,0.288813 0.2361,0.406864 0.50355,0.220428"
       id="path53-5-6-1" />
    <path
       style="fill:none;stroke:#000000;stroke-width:0.35;stroke-dasharray:none;stroke-opacity:0.834197"
       d="m 147.0674,29.260637 c -0.34634,-0.239294 -0.89034,-0.171339 -1.23687,0.0175 -0.62991,0.541138 0.21861,1.607682 0.98909,1.148879 0.14177,-0.0844 0.24246,-0.228185 0.35197,-0.340665"
       id="path54-5-3-5"
       sodipodi:nodetypes="cscc" />
    <path
       style="fill:none;stroke:#000000;stroke-width:0.35;stroke-dasharray:none;stroke-opacity:0.834197"
       d="m 130.04821,35.815518 c -0.0518,0.955099 -0.23114,1.946137 -0.0199,2.897884 0.0674,0.303872 0.26053,0.428078 0.55565,0.231921"
       id="path53-5-6-1-3" />
    <path
       style="fill:none;stroke:#000000;stroke-width:0.35;stroke-dasharray:none;stroke-opacity:0.834197"
       d="m 129.93038,37.715755 c -0.38218,-0.251771 -0.98246,-0.180273 -1.36484,0.01841 -0.69509,0.569353 0.24123,1.691508 1.09142,1.208782 0.15644,-0.0888 0.26755,-0.240082 0.38839,-0.358427"
       id="path54-5-3-5-4"
       sodipodi:nodetypes="cscc" />
    <path
       style="fill:none;stroke:#000000;stroke-width:0.35;stroke-dasharray:none;stroke-opacity:1"
       d="m 128.41696,23.861431 c 0.10729,-0.115634 0.19144,-0.249818 0.3562,-0.333941 0.38089,-0.194477 1.39507,-0.304151 1.60198,0.09186 0.16117,0.308456 -0.15754,1.128142 -0.18435,1.514523 -0.004,0.05457 -0.0377,0.288787 0.0627,0.363734 0.155,0.115775 0.41221,-0.142522 0.46895,-0.209799"
       id="path95-6" />
    <path
       style="fill:none;stroke:#000000;stroke-width:0.35;stroke-dasharray:none;stroke-opacity:1"
       d="m 130.24269,24.261165 c -0.074,-0.048 -0.14031,-0.102398 -0.22195,-0.144003 -0.0361,-0.01838 -0.22751,-0.03541 -0.25059,-0.036 -0.47032,-0.01214 -1.08886,0.275629 -1.15451,0.618223 -0.0408,0.213249 -0.045,0.812083 0.45464,0.83423 0.10288,0.0045 0.48219,-0.194265 0.51014,-0.207317 0.23008,-0.107455 0.48961,-0.197735 0.67839,-0.340147"
       id="path96-8" />
    <path
       style="fill:none;stroke:#000000;stroke-width:0.35;stroke-dasharray:none;stroke-opacity:1"
       d="m 145.54054,41.138387 c 0.10729,-0.115634 0.19144,-0.249818 0.3562,-0.333941 0.38089,-0.194477 1.39507,-0.304151 1.60198,0.09186 0.16117,0.308456 -0.15754,1.128142 -0.18435,1.514523 -0.004,0.05457 -0.0377,0.288787 0.0627,0.363734 0.155,0.115775 0.41221,-0.142522 0.46895,-0.209799"
       id="path95-6-6" />
    <path
       style="fill:none;stroke:#000000;stroke-width:0.35;stroke-dasharray:none;stroke-opacity:1"
       d="m 147.36627,41.538121 c -0.074,-0.048 -0.14031,-0.102398 -0.22195,-0.144003 -0.0361,-0.01838 -0.22751,-0.03541 -0.25059,-0.036 -0.47032,-0.01214 -1.08886,0.275629 -1.15451,0.618223 -0.0408,0.213249 -0.045,0.812083 0.45464,0.83423 0.10288,0.0045 0.48219,-0.194265 0.51014,-0.207317 0.23008,-0.107455 0.48961,-0.197735 0.67839,-0.340147"
       id="path96-8-9" />
    <path
       style="fill:none;stroke:#000000;stroke-width:0.35;stroke-dasharray:none;stroke-opacity:1"
       d="m 130.0347,33.350017 c -1.60814,-2.483332 -2.78337,3.472063 0.1335,0.888243"
       id="path14-3-2-6"
       sodipodi:nodetypes="cc" />
    <path
       style="fill:none;stroke:#000000;stroke-width:0.35;stroke-dasharray:none;stroke-opacity:1"
       d="m 147.57774,37.455513 c -1.60814,-2.483332 -2.78337,3.472063 0.1335,0.888243"
       id="path14-3-2-6-9"
       sodipodi:nodetypes="cc" />
    <path
       style="fill:none;stroke:#000000;stroke-width:0.284253;stroke-linecap:butt;stroke-linejoin:miter;stroke-miterlimit:4;stroke-dasharray:none;stroke-opacity:1"
       d="m 163.62658,44.731065 18.73523,-0.145406"
       id="path835-7-0-1-3"
       sodipodi:nodetypes="cc"
       inkscape:export-filename="WhiteheadGraphs.png"
       inkscape:export-xdpi="500"
       inkscape:export-ydpi="500" />
    <path
       style="fill:none;stroke:#000000;stroke-width:0.284253;stroke-linecap:butt;stroke-linejoin:miter;stroke-miterlimit:4;stroke-dasharray:none;stroke-opacity:1"
       d="m 159.5781,40.259731 c -1.33827,-8.265913 5.56023,-12.447165 9.57503,-13.824819"
       id="path857-99-1-2-2"
       sodipodi:nodetypes="cc" />
    <path
       style="fill:none;stroke:#000000;stroke-width:0.284253;stroke-linecap:butt;stroke-linejoin:miter;stroke-miterlimit:4;stroke-dasharray:none;stroke-opacity:1"
       d="m 186.53814,40.007887 c 1.33828,-8.265893 -5.68861,-12.398851 -9.7034,-13.776504"
       id="path857-9-3-7-8-5"
       sodipodi:nodetypes="cc" />
    <ellipse
       style="fill:#eb0009;fill-opacity:1;stroke:#cf0000;stroke-width:0.318764;stroke-miterlimit:4;stroke-dasharray:none;stroke-opacity:1"
       id="path920-4-8-3-3"
       cx="176.60689"
       cy="26.19569"
       rx="0.74505168"
       ry="0.81250703" />
    <ellipse
       style="fill:#8000fe;fill-opacity:1;stroke:#7e00fd;stroke-width:0.318764;stroke-miterlimit:4;stroke-dasharray:none;stroke-opacity:1"
       id="path920-3-8-7-8-5"
       cx="168.84283"
       cy="32.074444"
       rx="0.74505168"
       ry="0.81250703" />
    <ellipse
       style="fill:#8000fe;fill-opacity:1;stroke:#7e00fd;stroke-width:0.318764;stroke-miterlimit:4;stroke-dasharray:none;stroke-opacity:1"
       id="path920-3-7-9-0-0-4"
       cx="176.6561"
       cy="31.853901"
       rx="0.74505168"
       ry="0.81250703" />
    <ellipse
       style="fill:#8000fe;fill-opacity:1;stroke:#7e00fd;stroke-width:0.318764;stroke-miterlimit:4;stroke-dasharray:none;stroke-opacity:1"
       id="path920-3-5-0-8-7-8"
       cx="168.95775"
       cy="26.238096"
       rx="0.74505168"
       ry="0.81250703" />
    <path
       style="fill:none;fill-opacity:1;stroke:#cf0000;stroke-width:0.364442;stroke-linecap:butt;stroke-linejoin:miter;stroke-miterlimit:4;stroke-dasharray:none;stroke-opacity:1"
       d="m 169.8113,26.127845 c 2.33496,-0.707185 4.53967,-0.603128 6.66427,0"
       id="path1007-9-5-1-8"
       sodipodi:nodetypes="cc" />
    <path
       style="fill:none;stroke:#8c00fb;stroke-width:0.364442;stroke-linecap:butt;stroke-linejoin:miter;stroke-miterlimit:4;stroke-dasharray:none;stroke-opacity:1"
       d="m 168.85925,31.540046 c 2.21435,-2.002698 5.36783,-1.933775 7.61632,0"
       id="path1007-7-4-7-2-1-7"
       sodipodi:nodetypes="cc" />
    <path
       style="fill:none;stroke:#8c00fb;stroke-width:0.328766;stroke-linecap:butt;stroke-linejoin:miter;stroke-miterlimit:4;stroke-dasharray:none;stroke-opacity:1"
       d="m 168.81871,26.127845 c 2.42064,0.492014 0.99259,3.936135 -0.43548,6.396246"
       id="path1007-7-4-3-2-9-3-7"
       sodipodi:nodetypes="cc" />
    <path
       style="fill:none;stroke:#8c00fb;stroke-width:0.415155;stroke-linecap:butt;stroke-linejoin:miter;stroke-miterlimit:4;stroke-dasharray:none;stroke-opacity:1"
       d="m 169.33527,26.127845 c 3.69386,0.0276 6.59457,2.321769 7.1403,5.412201"
       id="path1007-7-4-5-0-5-6-9"
       sodipodi:nodetypes="cc" />
    <path
       style="fill:none;stroke:#000000;stroke-width:0.259962;stroke-linecap:butt;stroke-linejoin:miter;stroke-miterlimit:4;stroke-dasharray:none;stroke-opacity:1"
       d="m 161.48918,33.215076 -1.4885,1.497545 -0.26954,-1.969034"
       id="path290-5-1-2-5" />
    <path
       style="fill:none;stroke:#000000;stroke-width:0.305469;stroke-linecap:butt;stroke-linejoin:miter;stroke-miterlimit:4;stroke-dasharray:none;stroke-opacity:1"
       d="m 168.67727,35.09253 -2.01067,1.427959 0.25905,-2.473799"
       id="path290-0-7-4-3-0" />
    <path
       style="fill:none;stroke:#000000;stroke-width:0.283726;stroke-linecap:butt;stroke-linejoin:miter;stroke-miterlimit:4;stroke-dasharray:none;stroke-opacity:1"
       d="m 178.84411,35.105972 0.51664,2.165053 -2.08625,-1.054456"
       id="path290-6-8-3-2-0" />
    <path
       style="fill:none;stroke:#000000;stroke-width:0.281745;stroke-linecap:butt;stroke-linejoin:miter;stroke-miterlimit:4;stroke-dasharray:none;stroke-opacity:1"
       d="m 185.51762,35.389488 0.14604,-1.985382 1.87187,1.372181"
       id="path290-3-2-4-5-1"
       inkscape:transform-center-x="-1.1328868"
       inkscape:transform-center-y="0.091330697" />
    <path
       style="fill:none;stroke:#7e37bc;stroke-width:0.366653;stroke-dasharray:none;stroke-opacity:1"
       d="m 156.28412,39.707075 c 0.45891,0.357798 1.15764,-0.115844 1.40545,-0.567363 0.0197,-0.03576 0.12746,-0.235111 0.12641,-0.31387 -0.002,-0.124812 -0.0592,-0.169175 -0.13789,-0.253308 -0.1256,-0.134285 -0.2255,-0.147019 -0.42464,-0.174064 -0.41037,-0.05583 -1.24702,0.86396 -0.96149,1.925365 0.11463,0.426382 0.6899,0.626533 1.03972,0.361197 0.0808,-0.06123 0.31072,-0.260395 0.42416,-0.394349 0.0856,-0.101122 0.23481,-0.245602 0.23662,-0.400829"
       id="path90-2"
       sodipodi:nodetypes="cccsccssc" />
    <path
       style="fill:none;fill-opacity:1;stroke:#e3000d;stroke-width:0.396463;stroke-dasharray:none;stroke-opacity:1"
       d="m 180.6235,22.752438 c -0.18353,0.02277 -0.36747,0.06233 -0.55049,0.06836 -0.65301,0.02159 -1.13735,-0.02681 -1.74918,-0.06138 -0.21053,-0.0119 -0.42094,-0.04965 -0.63926,-0.02103 -0.0333,0.0043 0.0654,0.0011 0.0981,0.0018"
       id="path27-3-3-7" />
    <path
       style="fill:none;stroke:#e3000d;stroke-width:0.34936;stroke-dasharray:none;stroke-opacity:1"
       d="m 179.9138,24.064315 c -2.01485,-2.132372 -3.4873,2.981372 0.16726,0.762711"
       id="path14-3-2-6-9-3"
       sodipodi:nodetypes="cc" />
    <path
       style="fill:none;stroke:#000000;stroke-width:0.331485;stroke-linecap:butt;stroke-linejoin:miter;stroke-miterlimit:4;stroke-dasharray:none;stroke-opacity:1"
       d="m 168.62227,32.994882 c -1.07705,2.484918 -2.57158,4.669541 -4.27661,6.702753"
       id="path835-7-1"
       sodipodi:nodetypes="cc"
       inkscape:export-filename="MapRank3.png"
       inkscape:export-xdpi="400"
       inkscape:export-ydpi="400" />
    <path
       style="fill:none;stroke:#000000;stroke-width:0.37013;stroke-linecap:butt;stroke-linejoin:miter;stroke-miterlimit:4;stroke-dasharray:none;stroke-opacity:1"
       d="m 181.28348,39.532871 c -2.44788,-2.231614 -2.93818,-3.965816 -4.36943,-7.002913"
       id="path835-7-4"
       sodipodi:nodetypes="cc"
       inkscape:export-filename="MapRank3.png"
       inkscape:export-xdpi="400"
       inkscape:export-ydpi="400" />
    <path
       style="fill:none;fill-opacity:1;stroke:#7745a2;stroke-width:0.383964;stroke-dasharray:none;stroke-opacity:1"
       d="m 158.07569,37.367616 c -0.11336,0.03456 -0.22699,0.09462 -0.34005,0.103788 -0.40342,0.03278 -0.70262,-0.0407 -1.08059,-0.0932 -0.13006,-0.01808 -0.26004,-0.07538 -0.39491,-0.03195 -0.0206,0.0065 0.0404,0.0017 0.0606,0.0027"
       id="path27-3-8" />
    <ellipse
       style="fill:#8000fe;fill-opacity:1;stroke:#7e00fd;stroke-width:0.318764;stroke-miterlimit:4;stroke-dasharray:none;stroke-opacity:1"
       id="path920-3-8-2"
       cx="159.5865"
       cy="40.1796"
       rx="0.74505168"
       ry="0.81250703" />
    <ellipse
       style="fill:#8000fe;fill-opacity:1;stroke:#7e00fd;stroke-width:0.318764;stroke-miterlimit:4;stroke-dasharray:none;stroke-opacity:1"
       id="path920-3-8-4"
       cx="163.38103"
       cy="44.776402"
       rx="0.74505168"
       ry="0.81250703" />
    <ellipse
       style="fill:#8000fe;fill-opacity:1;stroke:#7e00fd;stroke-width:0.318764;stroke-miterlimit:4;stroke-dasharray:none;stroke-opacity:1"
       id="path920-3-8-3"
       cx="164.19354"
       cy="39.526802"
       rx="0.74505168"
       ry="0.81250703" />
    <ellipse
       style="fill:#8000fe;fill-opacity:1;stroke:#7e00fd;stroke-width:0.318764;stroke-miterlimit:4;stroke-dasharray:none;stroke-opacity:1"
       id="path920-3-8-28"
       cx="181.16101"
       cy="38.982979"
       rx="0.74505168"
       ry="0.81250703" />
    <ellipse
       style="fill:#8000fe;fill-opacity:1;stroke:#7e00fd;stroke-width:0.318764;stroke-miterlimit:4;stroke-dasharray:none;stroke-opacity:1"
       id="path920-3-8-76"
       cx="186.53625"
       cy="40.231411"
       rx="0.74505168"
       ry="0.81250703" />
    <ellipse
       style="fill:#8000fe;fill-opacity:1;stroke:#7e00fd;stroke-width:0.318764;stroke-miterlimit:4;stroke-dasharray:none;stroke-opacity:1"
       id="path920-3-8-6"
       cx="182.17313"
       cy="44.704281"
       rx="0.74505168"
       ry="0.81250703" />
    <path
       style="fill:none;stroke:#7e37bc;stroke-width:0.399726;stroke-dasharray:none;stroke-opacity:1"
       d="m 165.7095,24.769593 c 0.6074,0.321304 1.53222,-0.104027 1.86018,-0.50949 0.026,-0.03211 0.16871,-0.211131 0.16732,-0.281857 -0.003,-0.112081 -0.0783,-0.15192 -0.1825,-0.227469 -0.16622,-0.120589 -0.29846,-0.132024 -0.56202,-0.15631 -0.54316,-0.05013 -1.65049,0.775835 -1.2726,1.728976 0.15173,0.382892 0.91313,0.562627 1.37612,0.324356 0.10687,-0.05499 0.41126,-0.233835 0.56141,-0.354128 0.11335,-0.0908 0.31078,-0.220548 0.31316,-0.359942"
       id="path90-69"
       sodipodi:nodetypes="cccsccssc" />
    <path
       style="fill:none;fill-opacity:1;stroke:#772ec5;stroke-width:0.395062;stroke-dasharray:none;stroke-opacity:0.889465"
       d="m 165.16949,33.544267 c -0.12747,0.03254 -0.25523,0.08911 -0.38239,0.09772 -0.45359,0.03084 -0.79003,-0.03832 -1.21503,-0.08775 -0.14626,-0.01701 -0.29239,-0.07097 -0.44404,-0.03008 -0.0231,0.006 0.0455,0.0016 0.068,0.0025"
       id="path27-3-6-9" />
    <path
       style="fill:none;stroke:#772ec5;stroke-width:0.369099;stroke-dasharray:none;stroke-opacity:0.889465"
       d="m 164.52003,34.240588 c -0.0478,1.050529 -0.21332,2.140588 -0.0184,3.187428 0.0622,0.334233 0.24045,0.470849 0.5128,0.255094"
       id="path53-5-6-1-9" />
    <path
       style="fill:none;stroke:#772ec5;stroke-width:0.369099;stroke-dasharray:none;stroke-opacity:0.889465"
       d="m 164.41128,36.33069 c -0.35268,-0.276928 -0.90668,-0.198287 -1.25956,0.02026 -0.64147,0.626239 0.22262,1.860515 1.00724,1.329557 0.14437,-0.09766 0.24691,-0.264069 0.35842,-0.394239"
       id="path54-5-3-5-1"
       sodipodi:nodetypes="cscc" />
    <path
       style="fill:none;stroke:#000000;stroke-width:0.521947;stroke-dasharray:none;stroke-opacity:0.834197"
       d="m 169.6689,34.5861 c -0.0678,1.481361 -0.30249,3.018468 -0.026,4.494629 0.0882,0.47131 0.34098,0.663954 0.7272,0.359712"
       id="path53-5-6-1-4" />
    <path
       style="fill:none;stroke:#000000;stroke-width:0.521947;stroke-dasharray:none;stroke-opacity:0.834197"
       d="m 169.51469,37.533376 c -0.50013,-0.390499 -1.28573,-0.279605 -1.78619,0.02857 -0.90965,0.883067 0.31572,2.623535 1.42839,1.874826 0.20474,-0.137713 0.35013,-0.37237 0.50829,-0.555923"
       id="path54-5-3-5-43"
       sodipodi:nodetypes="cscc" />
    <path
       style="fill:none;stroke:#772ec5;stroke-width:0.364863;stroke-dasharray:none;stroke-opacity:0.889465"
       d="m 167.92935,27.647469 c -0.0523,0.93699 -0.23369,1.909241 -0.0202,2.842944 0.0681,0.29811 0.2634,0.419962 0.5618,0.227524"
       id="path53-5-6-1-9-7" />
    <path
       style="fill:none;stroke:#772ec5;stroke-width:0.364863;stroke-dasharray:none;stroke-opacity:0.889465"
       d="m 167.69446,29.606964 c -0.38639,-0.246997 -0.99333,-0.176855 -1.37995,0.01807 -0.70278,0.55856 0.24391,1.659441 1.10351,1.185867 0.15818,-0.08713 0.27051,-0.235531 0.39269,-0.351633"
       id="path54-5-3-5-1-1"
       sodipodi:nodetypes="cscc" />
    <path
       style="fill:none;stroke:#8337bb;stroke-width:0.384739;stroke-dasharray:none;stroke-opacity:0.917099"
       d="m 180.61883,34.363518 c 0.36463,0.560422 0.25623,0.30748 0.28457,1.283442 0.0102,0.32612 -0.0276,0.649978 -0.0411,0.975001 -0.007,0.157165 -0.0186,0.314016 -0.0183,0.47153 4.9e-4,0.33395 0.0617,0.419691 0.0751,0.416601 0.0753,-0.01734 0.0264,-0.295066 0.0248,-0.323831 -0.0199,-0.359707 0.37872,-1.191314 1.06551,-1.185991 0.67601,0.0055 0.99704,1.387423 0.35053,1.489744 -0.65465,0.103605 -1.18291,-0.05144 -1.78269,-0.222794"
       id="path38-0-4-0" />
    <path
       style="fill:none;fill-opacity:1;stroke:#8337bb;stroke-width:0.421375;stroke-dasharray:none;stroke-opacity:0.917099"
       d="m 183.23498,33.517189 c -0.16016,0.02946 -0.32071,0.08067 -0.48046,0.08847 -0.56999,0.02794 -0.99272,-0.03469 -1.52676,-0.07944 -0.18374,-0.01541 -0.36741,-0.06426 -0.55796,-0.02723 -0.0292,0.0055 0.0571,0.0014 0.0856,0.0023"
       id="path27-3-35-4" />
    <path
       style="fill:none;stroke:#8337bb;stroke-width:0.359671;stroke-dasharray:none;stroke-opacity:0.917099"
       d="m 177.51483,27.872571 c 0.33216,0.5377 0.23339,0.295013 0.25922,1.231404 0.009,0.312897 -0.0252,0.623626 -0.0374,0.935471 -0.006,0.150793 -0.0169,0.301283 -0.0167,0.452412 4.3e-4,0.320409 0.0562,0.402674 0.0683,0.39971 0.0686,-0.01663 0.0241,-0.283104 0.0226,-0.310701 -0.0181,-0.345124 0.34497,-1.143015 0.97053,-1.137907 0.61576,0.0053 0.90818,1.331171 0.31929,1.429344 -0.59629,0.0994 -1.07747,-0.04936 -1.62379,-0.213761"
       id="path38-0-4-2" />
    <path
       style="fill:none;stroke:#000000;stroke-width:0.52939;stroke-dasharray:none;stroke-opacity:0.834197"
       d="m 175.40985,34.618043 c 0.42284,0.915055 0.29712,0.502051 0.33001,2.095595 0.0117,0.532488 -0.0319,1.061285 -0.0475,1.591978 -0.009,0.256618 -0.0215,0.512725 -0.0212,0.769913 5.5e-4,0.545272 0.0717,0.685271 0.0869,0.680226 0.0872,-0.02831 0.0305,-0.481784 0.0288,-0.528751 -0.0231,-0.587328 0.43913,-1.945174 1.23547,-1.936481 0.7839,0.009 1.15615,2.265379 0.40648,2.432447 -0.75909,0.169164 -1.37165,-0.08399 -2.0671,-0.363777"
       id="path38-3" />
    <path
       style="fill:none;stroke:#7c2cb7;stroke-width:0.32114;stroke-dasharray:none;stroke-opacity:1"
       d="m 182.11094,46.690138 c 0.0982,-0.106343 0.17524,-0.22974 0.32608,-0.307103 0.34869,-0.178848 1.27714,-0.279708 1.46654,0.08448 0.14754,0.283666 -0.14421,1.037479 -0.16876,1.392807 -0.003,0.05018 -0.0346,0.265579 0.0574,0.334504 0.14188,0.106465 0.37737,-0.131068 0.42929,-0.19294"
       id="path95-6-1" />
    <path
       style="fill:none;stroke:#7c2cb7;stroke-width:0.32114;stroke-dasharray:none;stroke-opacity:1"
       d="m 183.62536,47.245614 c -0.0676,-0.04414 -0.12843,-0.09416 -0.20318,-0.13243 -0.0331,-0.01691 -0.20827,-0.03256 -0.22941,-0.0331 -0.43055,-0.01121 -0.99679,0.253478 -1.0569,0.56854 -0.0375,0.196111 -0.0412,0.746818 0.41621,0.767186 0.0941,0.0041 0.44142,-0.178652 0.467,-0.190655 0.21063,-0.09882 0.44823,-0.181844 0.62105,-0.312811"
       id="path96-8-96" />
    <path
       style="fill:none;stroke:#000000;stroke-width:0.462101;stroke-dasharray:none;stroke-opacity:1"
       d="m 172.57994,46.90859 c 0.13934,-0.155185 0.24866,-0.335262 0.46267,-0.448153 0.49475,-0.260992 1.81209,-0.40818 2.08086,0.123295 0.20934,0.41395 -0.20463,1.513988 -0.23947,2.032516 -0.006,0.07323 -0.049,0.38756 0.0814,0.48814 0.20134,0.155365 0.53542,-0.191267 0.60913,-0.281555"
       id="path95-6-1-7" />
    <path
       style="fill:none;stroke:#000000;stroke-width:0.462101;stroke-dasharray:none;stroke-opacity:1"
       d="m 174.95142,47.445042 c -0.0959,-0.06442 -0.18226,-0.137409 -0.28831,-0.193256 -0.0469,-0.02469 -0.29549,-0.04751 -0.32548,-0.04832 -0.61092,-0.01636 -1.41435,0.369897 -1.49963,0.829665 -0.0532,0.286186 -0.0584,1.089832 0.59057,1.119555 0.13356,0.006 0.62631,-0.260709 0.66262,-0.278225 0.29885,-0.1442 0.63596,-0.265366 0.88117,-0.456484"
       id="path96-8-96-5" />
    <path
       style="fill:none;stroke:#7c2cb7;stroke-width:0.321146;stroke-dasharray:none;stroke-opacity:1"
       d="m 163.98604,47.240202 c 0.10809,-0.09663 0.19287,-0.208769 0.35887,-0.279069 0.38372,-0.162524 1.40544,-0.254177 1.61389,0.07676 0.16238,0.257774 -0.1587,0.942776 -0.18571,1.265671 -0.004,0.0456 -0.0381,0.241336 0.0633,0.303968 0.15616,0.09675 0.41529,-0.119104 0.47244,-0.175326"
       id="path95-6-1-9" />
    <path
       style="fill:none;stroke:#7c2cb7;stroke-width:0.321146;stroke-dasharray:none;stroke-opacity:1"
       d="m 165.82537,47.574257 c -0.0744,-0.04011 -0.14136,-0.08557 -0.2236,-0.120342 -0.0364,-0.01537 -0.22922,-0.02959 -0.25245,-0.03008 -0.47383,-0.01019 -1.09698,0.230339 -1.16312,0.516643 -0.0412,0.178208 -0.0454,0.678647 0.45803,0.697155 0.10355,0.0038 0.48577,-0.162344 0.51393,-0.173253 0.2318,-0.0898 0.49326,-0.165244 0.68345,-0.284256"
       id="path96-8-96-1" />
    <path
       style="fill:none;fill-opacity:1;stroke:#772ec5;stroke-width:0.350723;stroke-dasharray:none;stroke-opacity:0.889465"
       d="m 166.47571,46.197858 c -0.14756,0.02216 -0.29546,0.06067 -0.44265,0.06653 -0.52507,0.02101 -0.91453,-0.02609 -1.4065,-0.05974 -0.16929,-0.01159 -0.33846,-0.04832 -0.51401,-0.02048 -0.0268,0.0041 0.0526,0.0011 0.0788,0.0017"
       id="path27-3-6-9-1" />
    <path
       style="fill:none;stroke:#7e2fc2;stroke-width:0.36099;stroke-dasharray:none;stroke-opacity:1"
       d="m 189.6445,39.698449 c -1.68714,-2.718935 -2.92012,3.801468 0.14005,0.972513"
       id="path14-3-2-6-1-2"
       sodipodi:nodetypes="cc" />
    <path
       style="fill:none;stroke:#8c00fb;stroke-width:0.364442;stroke-linecap:butt;stroke-linejoin:miter;stroke-miterlimit:4;stroke-dasharray:none;stroke-opacity:1"
       d="m 163.35907,44.862372 c -2.7627,-0.526611 -3.50389,-1.403604 -3.82967,-4.645615"
       id="path1007-7-4-7-2-1-5"
       sodipodi:nodetypes="cc" />
    <path
       style="fill:none;stroke:#8c00fb;stroke-width:0.364442;stroke-linecap:butt;stroke-linejoin:miter;stroke-miterlimit:4;stroke-dasharray:none;stroke-opacity:1"
       d="m 186.49035,40.76212 c -0.71546,3.165188 -1.53348,3.94319 -4.32383,4.008723"
       id="path1007-7-4-7-2-1-5-7"
       sodipodi:nodetypes="cc" />
    <path
       style="fill:none;stroke:#8c00fb;stroke-width:0.328766;stroke-linecap:butt;stroke-linejoin:miter;stroke-miterlimit:4;stroke-dasharray:none;stroke-opacity:1"
       d="m 181.26594,39.266995 c 1.50891,2.491522 2.70213,3.003032 1.27407,5.463144"
       id="path1007-7-4-3-2-9-3-5"
       sodipodi:nodetypes="cc" />
    <path
       style="fill:none;stroke:#8c00fb;stroke-width:0.328532;stroke-linecap:butt;stroke-linejoin:miter;stroke-miterlimit:4;stroke-dasharray:none;stroke-opacity:1"
       d="m 164.45016,39.308059 c -1.6205,1.825079 -2.58437,3.136435 -1.15838,5.596629"
       id="path1007-7-4-3-2-9-3-5-8"
       sodipodi:nodetypes="cc" />
    <path
       style="fill:none;stroke:#8c00fb;stroke-width:0.328766;stroke-linecap:butt;stroke-linejoin:miter;stroke-miterlimit:4;stroke-dasharray:none;stroke-opacity:1"
       d="m 164.16339,39.351166 c -0.6565,1.425118 -3.56615,2.069928 -4.31039,0.930926"
       id="path1007-7-4-3-2-9-3-5-3"
       sodipodi:nodetypes="cc" />
    <path
       style="fill:none;stroke:#8c00fb;stroke-width:0.328766;stroke-linecap:butt;stroke-linejoin:miter;stroke-miterlimit:4;stroke-dasharray:none;stroke-opacity:1"
       d="m 186.44198,39.913368 c -0.20064,3.291324 -4.4779,0.470321 -5.22217,-0.668681"
       id="path1007-7-4-3-2-9-3-5-3-4"
       sodipodi:nodetypes="cc" />
    <path
       style="fill:none;stroke:#000000;stroke-width:0.28092;stroke-linecap:butt;stroke-linejoin:miter;stroke-miterlimit:4;stroke-dasharray:none;stroke-opacity:1"
       d="m 25.017208,44.653505 18.29551,-0.145429"
       id="path835-7-0-1-3-1"
       sodipodi:nodetypes="cc"
       inkscape:export-filename="WhiteheadGraphs.png"
       inkscape:export-xdpi="500"
       inkscape:export-ydpi="500" />
    <path
       style="fill:none;stroke:#000000;stroke-width:0.28092;stroke-linecap:butt;stroke-linejoin:miter;stroke-miterlimit:4;stroke-dasharray:none;stroke-opacity:1"
       d="m 21.063758,40.181462 c -1.30686,-8.267224 5.42972,-12.449139 9.35029,-13.827011"
       id="path857-99-1-2-2-4"
       sodipodi:nodetypes="cc" />
    <path
       style="fill:none;stroke:#000000;stroke-width:0.28092;stroke-linecap:butt;stroke-linejoin:miter;stroke-miterlimit:4;stroke-dasharray:none;stroke-opacity:1"
       d="m 47.391018,39.929578 c 1.30687,-8.267204 -5.55509,-12.400817 -9.47565,-13.778689"
       id="path857-9-3-7-8-5-5"
       sodipodi:nodetypes="cc" />
    <ellipse
       style="fill:#eb0009;fill-opacity:1;stroke:#cf0000;stroke-width:0.315026;stroke-miterlimit:4;stroke-dasharray:none;stroke-opacity:1"
       id="path920-4-8-3-3-5"
       cx="37.692867"
       cy="26.115187"
       rx="0.72756481"
       ry="0.8126359" />
    <ellipse
       style="fill:#8000fe;fill-opacity:1;stroke:#7e00fd;stroke-width:0.315026;stroke-miterlimit:4;stroke-dasharray:none;stroke-opacity:1"
       id="path920-3-8-7-8-5-0"
       cx="30.111052"
       cy="31.994875"
       rx="0.72756481"
       ry="0.8126359" />
    <ellipse
       style="fill:#8000fe;fill-opacity:1;stroke:#7e00fd;stroke-width:0.315026;stroke-miterlimit:4;stroke-dasharray:none;stroke-opacity:1"
       id="path920-3-7-9-0-0-4-0"
       cx="37.740932"
       cy="31.774298"
       rx="0.72756481"
       ry="0.8126359" />
    <ellipse
       style="fill:#8000fe;fill-opacity:1;stroke:#7e00fd;stroke-width:0.315026;stroke-miterlimit:4;stroke-dasharray:none;stroke-opacity:1"
       id="path920-3-5-0-8-7-8-9"
       cx="30.223265"
       cy="26.157602"
       rx="0.72756481"
       ry="0.8126359" />
    <path
       style="fill:none;fill-opacity:1;stroke:#cf0000;stroke-width:0.360168;stroke-linecap:butt;stroke-linejoin:miter;stroke-miterlimit:4;stroke-dasharray:none;stroke-opacity:1"
       d="m 31.056768,26.047335 c 2.28016,-0.707297 4.43313,-0.603224 6.50786,0"
       id="path1007-9-5-1-8-9"
       sodipodi:nodetypes="cc" />
    <path
       style="fill:none;stroke:#8c00fb;stroke-width:0.360168;stroke-linecap:butt;stroke-linejoin:miter;stroke-miterlimit:4;stroke-dasharray:none;stroke-opacity:1"
       d="m 30.127068,31.460394 c 2.16238,-2.003015 5.24184,-1.934081 7.43756,0"
       id="path1007-7-4-7-2-1-7-0"
       sodipodi:nodetypes="cc" />
    <path
       style="fill:none;stroke:#8c00fb;stroke-width:0.324911;stroke-linecap:butt;stroke-linejoin:miter;stroke-miterlimit:4;stroke-dasharray:none;stroke-opacity:1"
       d="m 30.087478,26.047335 c 2.36383,0.492092 0.96929,3.936759 -0.42526,6.39726"
       id="path1007-7-4-3-2-9-3-7-6"
       sodipodi:nodetypes="cc" />
    <path
       style="fill:none;stroke:#8c00fb;stroke-width:0.410287;stroke-linecap:butt;stroke-linejoin:miter;stroke-miterlimit:4;stroke-dasharray:none;stroke-opacity:1"
       d="m 30.591918,26.047335 c 3.60716,0.0276 6.43979,2.322137 6.97271,5.413059"
       id="path1007-7-4-5-0-5-6-9-1"
       sodipodi:nodetypes="cc" />
    <path
       style="fill:none;stroke:#000000;stroke-width:0.262983;stroke-linecap:butt;stroke-linejoin:miter;stroke-miterlimit:4;stroke-dasharray:none;stroke-opacity:1"
       d="m 23.707255,32.182867 -1.723429,1.323649 -0.312077,-1.740389"
       id="path290-5-1-2-5-5" />
    <path
       style="fill:none;stroke:#000000;stroke-width:0.308193;stroke-linecap:butt;stroke-linejoin:miter;stroke-miterlimit:4;stroke-dasharray:none;stroke-opacity:1"
       d="M 29.37556,35.856138 27.416502,37.347971 27.6689,34.763518"
       id="path290-0-7-4-3-0-1" />
    <path
       style="fill:none;stroke:#000000;stroke-width:0.293889;stroke-linecap:butt;stroke-linejoin:miter;stroke-miterlimit:4;stroke-dasharray:none;stroke-opacity:1"
       d="M 39.956757,35.028453 40.486385,37.29443 38.34769,36.19082"
       id="path290-6-8-3-2-0-3" />
    <path
       style="fill:none;stroke:#000000;stroke-width:0.310983;stroke-linecap:butt;stroke-linejoin:miter;stroke-miterlimit:4;stroke-dasharray:none;stroke-opacity:1"
       d="m 32.260278,43.152786 1.718321,1.468526 -1.737662,1.291996"
       id="path290-7-0-7-5-6-6" />
    <path
       style="fill:none;stroke:#000000;stroke-width:0.278441;stroke-linecap:butt;stroke-linejoin:miter;stroke-miterlimit:4;stroke-dasharray:none;stroke-opacity:1"
       d="m 45.594435,33.824686 0.142603,-1.985697 1.827933,1.372399"
       id="path290-3-2-4-5-1-8"
       inkscape:transform-center-x="-1.1062967"
       inkscape:transform-center-y="0.091345343" />
    <path
       style="fill:none;stroke:#9041bf;stroke-width:0.366144;stroke-dasharray:none;stroke-opacity:1"
       d="m 17.286463,39.752618 c 0.596437,0.274531 1.504565,-0.08888 1.826647,-0.435326 0.02556,-0.02744 0.165653,-0.180397 0.164278,-0.240827 -0.0026,-0.09577 -0.07693,-0.129805 -0.179196,-0.194358 -0.163241,-0.103035 -0.293088,-0.112805 -0.551901,-0.133556 -0.533362,-0.04284 -1.620752,0.662899 -1.249657,1.477294 0.148996,0.327156 0.89666,0.480727 1.351327,0.27714 0.104952,-0.04698 0.403839,-0.199797 0.551265,-0.302576 0.111309,-0.07759 0.305191,-0.188446 0.307539,-0.307548"
       id="path90-2-7"
       sodipodi:nodetypes="cccsccssc" />
    <path
       style="fill:none;fill-opacity:1;stroke:#c2212a;stroke-width:0.4106;stroke-dasharray:none;stroke-opacity:1"
       d="m 41.585452,22.400732 c -0.166797,0.02687 -0.333974,0.07355 -0.500314,0.08067 -0.593508,0.02547 -1.033714,-0.03164 -1.589788,-0.07244 -0.191349,-0.01404 -0.382581,-0.05859 -0.581009,-0.02481 -0.03026,0.005 0.05947,0.0013 0.08914,0.0021"
       id="path27-3-3-7-1" />
    <path
       style="fill:none;stroke:#c2212a;stroke-width:0.361817;stroke-dasharray:none;stroke-opacity:1"
       d="m 40.940429,23.948919 c -1.831244,-2.516479 -3.169516,3.518409 0.152022,0.900099"
       id="path14-3-2-6-9-3-8"
       sodipodi:nodetypes="cc" />
    <path
       style="fill:none;stroke:#000000;stroke-width:0.327598;stroke-linecap:butt;stroke-linejoin:miter;stroke-miterlimit:4;stroke-dasharray:none;stroke-opacity:1"
       d="m 29.895648,32.915461 c -1.05177,2.485312 -2.51122,4.670282 -4.17623,6.703816"
       id="path835-7-1-2"
       sodipodi:nodetypes="cc"
       inkscape:export-filename="MapRank3.png"
       inkscape:export-xdpi="400"
       inkscape:export-ydpi="400" />
    <path
       style="fill:none;stroke:#000000;stroke-width:0.36579;stroke-linecap:butt;stroke-linejoin:miter;stroke-miterlimit:4;stroke-dasharray:none;stroke-opacity:1"
       d="m 42.259688,39.454487 c -2.39042,-2.231968 -2.86921,-3.966445 -4.26687,-7.004024"
       id="path835-7-4-4"
       sodipodi:nodetypes="cc"
       inkscape:export-filename="MapRank3.png"
       inkscape:export-xdpi="400"
       inkscape:export-ydpi="400" />
    <path
       style="fill:none;fill-opacity:1;stroke:#7745a2;stroke-width:0.383431;stroke-dasharray:none;stroke-opacity:1"
       d="m 19.614948,37.957597 c -0.147336,0.02652 -0.295021,0.0726 -0.441967,0.07963 -0.524319,0.02515 -0.913188,-0.03123 -1.404438,-0.0715 -0.16904,-0.01387 -0.337976,-0.05784 -0.513254,-0.02451 -0.02672,0.005 0.05254,0.0013 0.07874,0.002"
       id="path27-3-8-8" />
    <ellipse
       style="fill:#8000fe;fill-opacity:1;stroke:#7e00fd;stroke-width:0.315026;stroke-miterlimit:4;stroke-dasharray:none;stroke-opacity:1"
       id="path920-3-8-2-4"
       cx="21.071974"
       cy="40.101318"
       rx="0.72756481"
       ry="0.8126359" />
    <ellipse
       style="fill:#8000fe;fill-opacity:1;stroke:#7e00fd;stroke-width:0.315026;stroke-miterlimit:4;stroke-dasharray:none;stroke-opacity:1"
       id="path920-3-8-4-2"
       cx="24.777433"
       cy="44.698849"
       rx="0.72756481"
       ry="0.8126359" />
    <ellipse
       style="fill:#8000fe;fill-opacity:1;stroke:#7e00fd;stroke-width:0.315026;stroke-miterlimit:4;stroke-dasharray:none;stroke-opacity:1"
       id="path920-3-8-3-3"
       cx="25.570875"
       cy="39.448414"
       rx="0.72756481"
       ry="0.8126359" />
    <ellipse
       style="fill:#8000fe;fill-opacity:1;stroke:#7e00fd;stroke-width:0.315026;stroke-miterlimit:4;stroke-dasharray:none;stroke-opacity:1"
       id="path920-3-8-28-7"
       cx="42.140099"
       cy="38.904507"
       rx="0.72756481"
       ry="0.8126359" />
    <ellipse
       style="fill:#8000fe;fill-opacity:1;stroke:#7e00fd;stroke-width:0.315026;stroke-miterlimit:4;stroke-dasharray:none;stroke-opacity:1"
       id="path920-3-8-76-9"
       cx="47.389183"
       cy="40.153137"
       rx="0.72756481"
       ry="0.8126359" />
    <ellipse
       style="fill:#8000fe;fill-opacity:1;stroke:#7e00fd;stroke-width:0.315026;stroke-miterlimit:4;stroke-dasharray:none;stroke-opacity:1"
       id="path920-3-8-6-4"
       cx="43.128456"
       cy="44.626717"
       rx="0.72756481"
       ry="0.8126359" />
    <path
       style="fill:none;stroke:#9234d3;stroke-width:0.406871;stroke-dasharray:none;stroke-opacity:1"
       d="m 27.059418,24.095579 c 0.587206,0.344339 1.481273,-0.111486 1.798338,-0.546019 0.02516,-0.03442 0.163099,-0.226267 0.161746,-0.302064 -0.0026,-0.120118 -0.07574,-0.162813 -0.176434,-0.243779 -0.160684,-0.129235 -0.288532,-0.141489 -0.543334,-0.167515 -0.525096,-0.05373 -1.595621,0.831457 -1.23029,1.852934 0.146686,0.410344 0.882776,0.602967 1.330372,0.347612 0.103325,-0.05893 0.397593,-0.250601 0.542747,-0.379518 0.109584,-0.09732 0.300448,-0.23636 0.30276,-0.385748"
       id="path90-69-3"
       sodipodi:nodetypes="cccsccssc" />
    <path
       style="fill:none;fill-opacity:1;stroke:#772ec5;stroke-width:0.376989;stroke-dasharray:none;stroke-opacity:0.889465"
       d="m 26.407992,33.87551 c -0.114981,0.03285 -0.230227,0.08996 -0.344925,0.09864 -0.409175,0.03115 -0.712651,-0.03868 -1.096029,-0.08857 -0.13192,-0.01716 -0.263749,-0.07164 -0.400538,-0.03036 -0.02096,0.0062 0.04101,0.0016 0.06135,0.0026"
       id="path27-3-6-9-8" />
    <path
       style="fill:none;stroke:#772ec5;stroke-width:0.344712;stroke-dasharray:none;stroke-opacity:0.889465"
       d="m 25.874285,34.660182 c -0.04824,0.908023 -0.215258,1.850213 -0.01855,2.755048 0.06269,0.288894 0.242625,0.406978 0.517467,0.220491"
       id="path53-5-6-1-9-3" />
    <path
       style="fill:none;stroke:#772ec5;stroke-width:0.344712;stroke-dasharray:none;stroke-opacity:0.889465"
       d="m 25.764556,36.466758 c -0.355907,-0.239362 -0.914947,-0.171388 -1.271038,0.0175 -0.647313,0.541289 0.224641,1.608132 1.016419,1.1492 0.145684,-0.08441 0.249145,-0.228247 0.361685,-0.340759"
       id="path54-5-3-5-1-8"
       sodipodi:nodetypes="cscc" />
    <path
       style="fill:none;stroke:#000000;stroke-width:0.465265;stroke-dasharray:none;stroke-opacity:0.834197"
       d="m 31.125892,35.336241 c -0.06254,1.275936 -0.279055,2.599886 -0.02406,3.871342 0.08127,0.40595 0.314551,0.571881 0.670853,0.309828"
       id="path53-5-6-1-4-0" />
    <path
       style="fill:none;stroke:#000000;stroke-width:0.465265;stroke-dasharray:none;stroke-opacity:0.834197"
       d="m 30.983633,37.874807 c -0.461398,-0.336347 -1.186147,-0.240831 -1.647818,0.02461 -0.839193,0.760609 0.291252,2.259719 1.317718,1.614838 0.188889,-0.118611 0.323022,-0.320733 0.468924,-0.478832"
       id="path54-5-3-5-43-9"
       sodipodi:nodetypes="cscc" />
    <path
       style="fill:none;stroke:#772ec5;stroke-width:0.343321;stroke-dasharray:none;stroke-opacity:0.889465"
       d="m 29.230508,27.842349 c -0.05042,0.861669 -0.224996,1.755764 -0.0194,2.614409 0.06552,0.274146 0.253602,0.386203 0.540894,0.209234"
       id="path53-5-6-1-9-7-1" />
    <path
       style="fill:none;stroke:#772ec5;stroke-width:0.343321;stroke-dasharray:none;stroke-opacity:0.889465"
       d="m 29.004362,29.644327 c -0.372015,-0.227142 -0.956379,-0.162639 -1.328616,0.01662 -0.676637,0.513659 0.234832,1.526043 1.062464,1.090539 0.152283,-0.08012 0.260445,-0.216598 0.378069,-0.323367"
       id="path54-5-3-5-1-1-5"
       sodipodi:nodetypes="cscc" />
    <path
       style="fill:none;stroke:#8337bb;stroke-width:0.331837;stroke-dasharray:none;stroke-opacity:0.917099"
       d="m 41.586037,34.418455 c 0.281501,0.54004 0.19781,0.296297 0.219694,1.236763 0.0076,0.314259 -0.02134,0.626339 -0.03168,0.939541 -0.0054,0.151449 -0.01437,0.302595 -0.01415,0.45438 3.81e-4,0.321804 0.04769,0.404427 0.05792,0.401449 0.05814,-0.0167 0.02036,-0.284335 0.01916,-0.312053 -0.01535,-0.346624 0.292366,-1.147986 0.822554,-1.142857 0.52187,0.0053 0.769696,1.336963 0.270603,1.435562 -0.505376,0.09984 -0.913191,-0.04957 -1.376204,-0.21469"
       id="path38-0-4-0-1" />
    <path
       style="fill:none;fill-opacity:1;stroke:#8337bb;stroke-width:0.363436;stroke-dasharray:none;stroke-opacity:0.917099"
       d="m 43.605666,33.602907 c -0.123647,0.02839 -0.247587,0.07774 -0.370907,0.08525 -0.440019,0.02692 -0.766365,-0.03343 -1.178632,-0.07655 -0.141851,-0.01485 -0.283635,-0.06192 -0.430733,-0.02624 -0.02254,0.0053 0.04409,0.0014 0.06609,0.0022"
       id="path27-3-35-4-1" />
    <path
       style="fill:none;stroke:#8337bb;stroke-width:0.375096;stroke-dasharray:none;stroke-opacity:0.917099"
       d="m 38.588329,27.652636 c 0.346305,0.560915 0.243339,0.30775 0.270259,1.28457 0.0094,0.326408 -0.02625,0.650552 -0.03897,0.97586 -0.0067,0.157304 -0.01768,0.314291 -0.01741,0.471946 4.55e-4,0.334243 0.05866,0.42006 0.07125,0.416967 0.07152,-0.01735 0.02504,-0.295326 0.02357,-0.324116 -0.01888,-0.360024 0.359658,-1.192364 1.011874,-1.187036 0.641985,0.0055 0.946851,1.388645 0.332886,1.491056 -0.621694,0.103695 -1.123372,-0.05149 -1.692953,-0.22299"
       id="path38-0-4-2-6" />
    <path
       style="fill:none;stroke:#000000;stroke-width:0.462599;stroke-dasharray:none;stroke-opacity:0.834197"
       d="m 36.719432,34.997384 c 0.358078,0.825099 0.251611,0.452697 0.279461,1.889582 0.0097,0.480141 -0.02714,0.956954 -0.0403,1.435476 -0.007,0.231389 -0.01828,0.462319 -0.01801,0.694222 4.71e-4,0.491669 0.06065,0.617904 0.07368,0.613355 0.07395,-0.02552 0.02589,-0.43442 0.02437,-0.47677 -0.01952,-0.52959 0.371872,-1.753948 1.04626,-1.74611 0.663838,0.0081 0.979068,2.042675 0.344217,2.193319 -0.642829,0.152534 -1.161562,-0.07575 -1.750507,-0.328014"
       id="path38-3-1" />
    <path
       style="fill:none;stroke:#7c2cb7;stroke-width:0.334807;stroke-dasharray:none;stroke-opacity:1"
       d="m 43.901236,46.243894 c 0.100392,-0.113092 0.179113,-0.244321 0.333283,-0.326595 0.356376,-0.190199 1.30529,-0.297461 1.498882,0.08983 0.150804,0.301672 -0.147401,1.10333 -0.172487,1.481212 -0.0036,0.05337 -0.03535,0.282435 0.05864,0.355734 0.145013,0.113225 0.385686,-0.139387 0.438765,-0.205186"
       id="path95-6-1-2" />
    <path
       style="fill:none;stroke:#7c2cb7;stroke-width:0.334807;stroke-dasharray:none;stroke-opacity:1"
       d="m 45.609468,46.634838 c -0.06914,-0.04694 -0.131268,-0.100138 -0.20766,-0.140836 -0.03378,-0.01798 -0.212873,-0.03463 -0.234472,-0.03521 -0.440044,-0.01192 -1.018777,0.269568 -1.080206,0.604627 -0.03825,0.208559 -0.04211,0.794219 0.425383,0.815881 0.09617,0.0044 0.451158,-0.189992 0.477305,-0.202757 0.215274,-0.105086 0.458107,-0.193385 0.634733,-0.332665"
       id="path96-8-96-2" />
    <path
       style="fill:none;stroke:#000000;stroke-width:0.454487;stroke-dasharray:none;stroke-opacity:1"
       d="m 33.78813,46.77067 c 0.123403,-0.169537 0.220182,-0.366264 0.409676,-0.489597 0.438065,-0.285126 1.604485,-0.445921 1.842449,0.134696 0.185371,0.452231 -0.181187,1.653987 -0.212023,2.220465 -0.0044,0.08 -0.04346,0.423397 0.07223,0.533278 0.178281,0.169733 0.474091,-0.208955 0.539352,-0.307591"
       id="path95-6-1-7-9" />
    <path
       style="fill:none;stroke:#000000;stroke-width:0.454487;stroke-dasharray:none;stroke-opacity:1"
       d="m 35.887916,47.356725 c -0.08498,-0.07036 -0.161358,-0.150114 -0.25526,-0.211125 -0.04153,-0.02696 -0.261652,-0.05192 -0.288201,-0.05278 -0.540923,-0.01786 -1.252312,0.404102 -1.327823,0.906385 -0.04701,0.312649 -0.05177,1.190611 0.522903,1.223082 0.118213,0.0066 0.554571,-0.284818 0.586711,-0.303953 0.264619,-0.157534 0.5631,-0.289903 0.780225,-0.498695"
       id="path96-8-96-5-3" />
    <path
       style="fill:none;stroke:#7c2cb7;stroke-width:0.336231;stroke-dasharray:none;stroke-opacity:1"
       d="m 21.096591,46.610871 c 0.11527,-0.09934 0.20567,-0.214601 0.382675,-0.286866 0.409191,-0.167063 1.49872,-0.261276 1.721016,0.0789 0.173139,0.264975 -0.169247,0.969113 -0.19805,1.301028 -0.0042,0.04687 -0.04059,0.248077 0.06747,0.31246 0.166516,0.09945 0.442844,-0.122432 0.503789,-0.180225"
       id="path95-6-1-9-8" />
    <path
       style="fill:none;stroke:#7c2cb7;stroke-width:0.336231;stroke-dasharray:none;stroke-opacity:1"
       d="m 23.057996,46.954258 c -0.07938,-0.04123 -0.15075,-0.08796 -0.238449,-0.123704 -0.03879,-0.0158 -0.244421,-0.03042 -0.269207,-0.03092 -0.505272,-0.01047 -1.169774,0.236774 -1.240307,0.531075 -0.04392,0.183187 -0.04835,0.697606 0.488426,0.716631 0.11042,0.0039 0.518019,-0.16688 0.548041,-0.178092 0.247192,-0.0923 0.525999,-0.169862 0.728814,-0.292197"
       id="path96-8-96-1-7" />
    <path
       style="fill:none;fill-opacity:1;stroke:#772ec5;stroke-width:0.367197;stroke-dasharray:none;stroke-opacity:0.889465"
       d="m 23.751482,45.539409 c -0.157346,0.02278 -0.315065,0.06237 -0.472022,0.06839 -0.559914,0.02158 -0.975216,-0.02682 -1.499843,-0.06141 -0.180524,-0.01191 -0.360923,-0.04967 -0.548111,-0.02105 -0.02868,0.0043 0.05611,0.0011 0.08396,0.0018"
       id="path27-3-6-9-1-5" />
    <path
       style="fill:none;stroke:#7e2fc2;stroke-width:0.349002;stroke-dasharray:none;stroke-opacity:1"
       d="m 50.472819,38.015386 c -1.698193,-2.524811 -2.939247,3.530055 0.140963,0.903078"
       id="path14-3-2-6-1-2-3"
       sodipodi:nodetypes="cc" />
    <path
       style="fill:none;stroke:#8c00fb;stroke-width:0.360168;stroke-linecap:butt;stroke-linejoin:miter;stroke-miterlimit:4;stroke-dasharray:none;stroke-opacity:1"
       d="m 24.755978,44.784833 c -2.69785,-0.526694 -3.42165,-1.403826 -3.73978,-4.646352"
       id="path1007-7-4-7-2-1-5-0"
       sodipodi:nodetypes="cc" />
    <path
       style="fill:none;stroke:#8c00fb;stroke-width:0.360168;stroke-linecap:butt;stroke-linejoin:miter;stroke-miterlimit:4;stroke-dasharray:none;stroke-opacity:1"
       d="m 47.344358,40.683931 c -0.69867,3.16569 -1.49749,3.943815 -4.22235,4.009359"
       id="path1007-7-4-7-2-1-5-7-7"
       sodipodi:nodetypes="cc" />
    <path
       style="fill:none;stroke:#8c00fb;stroke-width:0.324911;stroke-linecap:butt;stroke-linejoin:miter;stroke-miterlimit:4;stroke-dasharray:none;stroke-opacity:1"
       d="m 42.242568,39.188569 c 1.47349,2.491917 2.63871,3.003508 1.24416,5.46401"
       id="path1007-7-4-3-2-9-3-5-7"
       sodipodi:nodetypes="cc" />
    <path
       style="fill:none;stroke:#8c00fb;stroke-width:0.324679;stroke-linecap:butt;stroke-linejoin:miter;stroke-miterlimit:4;stroke-dasharray:none;stroke-opacity:1"
       d="m 25.821458,39.229639 c -1.58246,1.825369 -2.52371,3.136933 -1.13119,5.597517"
       id="path1007-7-4-3-2-9-3-5-8-8"
       sodipodi:nodetypes="cc" />
    <path
       style="fill:none;stroke:#8c00fb;stroke-width:0.324911;stroke-linecap:butt;stroke-linejoin:miter;stroke-miterlimit:4;stroke-dasharray:none;stroke-opacity:1"
       d="m 25.541428,39.272753 c -0.6411,1.425344 -3.48245,2.070256 -4.20923,0.931074"
       id="path1007-7-4-3-2-9-3-5-3-6"
       sodipodi:nodetypes="cc" />
    <path
       style="fill:none;stroke:#8c00fb;stroke-width:0.324911;stroke-linecap:butt;stroke-linejoin:miter;stroke-miterlimit:4;stroke-dasharray:none;stroke-opacity:1"
       d="m 47.297118,39.835044 c -0.19593,3.291846 -4.3728,0.470396 -5.0996,-0.668787"
       id="path1007-7-4-3-2-9-3-5-3-4-6"
       sodipodi:nodetypes="cc" />
    <path
       style="fill:none;stroke:#000000;stroke-width:0.28092;stroke-linecap:butt;stroke-linejoin:miter;stroke-miterlimit:4;stroke-dasharray:none;stroke-opacity:1"
       d="M 92.230395,44.599383 110.52591,44.453954"
       id="path835-7-0-1-3-2"
       sodipodi:nodetypes="cc"
       inkscape:export-filename="WhiteheadGraphs.png"
       inkscape:export-xdpi="500"
       inkscape:export-ydpi="500" />
    <path
       style="fill:none;stroke:#000000;stroke-width:0.28092;stroke-linecap:butt;stroke-linejoin:miter;stroke-miterlimit:4;stroke-dasharray:none;stroke-opacity:1"
       d="m 88.276945,40.12734 c -1.30686,-8.267224 5.42972,-12.449139 9.35029,-13.827011"
       id="path857-99-1-2-2-1"
       sodipodi:nodetypes="cc" />
    <path
       style="fill:none;stroke:#000000;stroke-width:0.28092;stroke-linecap:butt;stroke-linejoin:miter;stroke-miterlimit:4;stroke-dasharray:none;stroke-opacity:1"
       d="m 114.60421,39.875456 c 1.30687,-8.267204 -5.55509,-12.400817 -9.47565,-13.778689"
       id="path857-9-3-7-8-5-3"
       sodipodi:nodetypes="cc" />
    <ellipse
       style="fill:#eb0009;fill-opacity:1;stroke:#cf0000;stroke-width:0.315026;stroke-miterlimit:4;stroke-dasharray:none;stroke-opacity:1"
       id="path920-4-8-3-3-1"
       cx="104.90605"
       cy="26.061066"
       rx="0.72756481"
       ry="0.8126359" />
    <ellipse
       style="fill:#8000fe;fill-opacity:1;stroke:#7e00fd;stroke-width:0.315026;stroke-miterlimit:4;stroke-dasharray:none;stroke-opacity:1"
       id="path920-3-8-7-8-5-4"
       cx="97.324242"
       cy="31.940754"
       rx="0.72756481"
       ry="0.8126359" />
    <ellipse
       style="fill:#8000fe;fill-opacity:1;stroke:#7e00fd;stroke-width:0.315026;stroke-miterlimit:4;stroke-dasharray:none;stroke-opacity:1"
       id="path920-3-7-9-0-0-4-2"
       cx="104.95412"
       cy="31.720175"
       rx="0.72756481"
       ry="0.8126359" />
    <ellipse
       style="fill:#8000fe;fill-opacity:1;stroke:#7e00fd;stroke-width:0.315026;stroke-miterlimit:4;stroke-dasharray:none;stroke-opacity:1"
       id="path920-3-5-0-8-7-8-7"
       cx="97.436455"
       cy="26.103479"
       rx="0.72756481"
       ry="0.8126359" />
    <path
       style="fill:none;fill-opacity:1;stroke:#cf0000;stroke-width:0.360168;stroke-linecap:butt;stroke-linejoin:miter;stroke-miterlimit:4;stroke-dasharray:none;stroke-opacity:1"
       d="m 98.269955,25.993213 c 2.280165,-0.707297 4.433135,-0.603224 6.507865,0"
       id="path1007-9-5-1-8-8"
       sodipodi:nodetypes="cc" />
    <path
       style="fill:none;stroke:#8c00fb;stroke-width:0.360168;stroke-linecap:butt;stroke-linejoin:miter;stroke-miterlimit:4;stroke-dasharray:none;stroke-opacity:1"
       d="m 97.340255,31.406272 c 2.16238,-2.003015 5.241845,-1.934081 7.437565,0"
       id="path1007-7-4-7-2-1-7-00"
       sodipodi:nodetypes="cc" />
    <path
       style="fill:none;stroke:#8c00fb;stroke-width:0.324911;stroke-linecap:butt;stroke-linejoin:miter;stroke-miterlimit:4;stroke-dasharray:none;stroke-opacity:1"
       d="m 97.300665,25.993213 c 2.36383,0.492092 0.96929,3.936759 -0.42526,6.39726"
       id="path1007-7-4-3-2-9-3-7-0"
       sodipodi:nodetypes="cc" />
    <path
       style="fill:none;stroke:#8c00fb;stroke-width:0.410287;stroke-linecap:butt;stroke-linejoin:miter;stroke-miterlimit:4;stroke-dasharray:none;stroke-opacity:1"
       d="m 97.805105,25.993213 c 3.607165,0.0276 6.439795,2.322137 6.972715,5.413059"
       id="path1007-7-4-5-0-5-6-9-13"
       sodipodi:nodetypes="cc" />
    <path
       style="fill:none;stroke:#000000;stroke-width:0.256264;stroke-linecap:butt;stroke-linejoin:miter;stroke-miterlimit:4;stroke-dasharray:none;stroke-opacity:1"
       d="m 90.349947,32.926464 -1.62996,1.328948 -0.295152,-1.747356"
       id="path290-5-1-2-5-1" />
    <path
       style="fill:none;stroke:#7e37bc;stroke-width:0.369425;stroke-dasharray:none;stroke-opacity:1"
       d="m 111.25998,47.112777 c 0.54759,0.304401 1.38134,-0.09856 1.67704,-0.482693 0.0235,-0.03042 0.15209,-0.200025 0.15082,-0.267029 -0.002,-0.106185 -0.0707,-0.143929 -0.16451,-0.215507 -0.14988,-0.114246 -0.2691,-0.125079 -0.5067,-0.148087 -0.48967,-0.0475 -1.48802,0.735027 -1.14732,1.638034 0.1368,0.36275 0.82323,0.533032 1.24067,0.307293 0.0963,-0.05209 0.37075,-0.221536 0.50611,-0.335499 0.10219,-0.08603 0.2802,-0.20895 0.28234,-0.34101"
       id="path90-2-6"
       sodipodi:nodetypes="cccsccssc" />
    <path
       style="fill:none;fill-opacity:1;stroke:#8c21c2;stroke-width:0.373802;stroke-dasharray:none;stroke-opacity:1"
       d="m 87.128895,36.487687 c -0.12282,0.03024 -0.24593,0.08279 -0.36842,0.0908 -0.43705,0.02867 -0.76121,-0.03561 -1.17069,-0.08153 -0.14091,-0.0158 -0.28173,-0.06594 -0.42785,-0.02793 -0.0223,0.0056 0.0438,0.0015 0.0656,0.0023"
       id="path27-3-3-7-7" />
    <path
       style="fill:none;stroke:#841fb7;stroke-width:0.35;stroke-dasharray:none;stroke-opacity:1"
       d="m 86.653915,38.230149 c -1.3485,-2.83226 -2.33398,3.959916 0.11195,1.013048"
       id="path14-3-2-6-9-3-9"
       sodipodi:nodetypes="cc" />
    <path
       style="fill:none;stroke:#000000;stroke-width:0.327598;stroke-linecap:butt;stroke-linejoin:miter;stroke-miterlimit:4;stroke-dasharray:none;stroke-opacity:1"
       d="m 97.108835,32.861339 c -1.05177,2.485312 -2.51122,4.670282 -4.17623,6.703816"
       id="path835-7-1-7"
       sodipodi:nodetypes="cc"
       inkscape:export-filename="MapRank3.png"
       inkscape:export-xdpi="400"
       inkscape:export-ydpi="400" />
    <path
       style="fill:none;stroke:#000000;stroke-width:0.36579;stroke-linecap:butt;stroke-linejoin:miter;stroke-miterlimit:4;stroke-dasharray:none;stroke-opacity:1"
       d="m 109.47288,39.400365 c -2.39042,-2.231968 -2.86921,-3.966445 -4.26687,-7.004024"
       id="path835-7-4-2"
       sodipodi:nodetypes="cc"
       inkscape:export-filename="MapRank3.png"
       inkscape:export-xdpi="400"
       inkscape:export-ydpi="400" />
    <path
       style="fill:none;fill-opacity:1;stroke:#7745a2;stroke-width:0.344732;stroke-dasharray:none;stroke-opacity:1"
       d="m 113.40466,45.388701 c -0.11728,0.02694 -0.23484,0.07373 -0.3518,0.08087 -0.41734,0.02553 -0.72687,-0.03172 -1.1179,-0.07262 -0.13456,-0.01408 -0.26903,-0.05873 -0.40854,-0.02489 -0.0213,0.0051 0.0418,0.0013 0.0627,0.0021"
       id="path27-3-8-0" />
    <ellipse
       style="fill:#8000fe;fill-opacity:1;stroke:#7e00fd;stroke-width:0.315026;stroke-miterlimit:4;stroke-dasharray:none;stroke-opacity:1"
       id="path920-3-8-2-3"
       cx="88.285164"
       cy="40.047199"
       rx="0.72756481"
       ry="0.8126359" />
    <ellipse
       style="fill:#8000fe;fill-opacity:1;stroke:#7e00fd;stroke-width:0.315026;stroke-miterlimit:4;stroke-dasharray:none;stroke-opacity:1"
       id="path920-3-8-4-9"
       cx="91.990623"
       cy="44.64473"
       rx="0.72756481"
       ry="0.8126359" />
    <ellipse
       style="fill:#8000fe;fill-opacity:1;stroke:#7e00fd;stroke-width:0.315026;stroke-miterlimit:4;stroke-dasharray:none;stroke-opacity:1"
       id="path920-3-8-3-4"
       cx="92.784065"
       cy="39.394295"
       rx="0.72756481"
       ry="0.8126359" />
    <ellipse
       style="fill:#8000fe;fill-opacity:1;stroke:#7e00fd;stroke-width:0.315026;stroke-miterlimit:4;stroke-dasharray:none;stroke-opacity:1"
       id="path920-3-8-28-6"
       cx="109.3533"
       cy="38.850388"
       rx="0.72756481"
       ry="0.8126359" />
    <ellipse
       style="fill:#8000fe;fill-opacity:1;stroke:#7e00fd;stroke-width:0.315026;stroke-miterlimit:4;stroke-dasharray:none;stroke-opacity:1"
       id="path920-3-8-76-4"
       cx="114.60239"
       cy="40.099018"
       rx="0.72756481"
       ry="0.8126359" />
    <ellipse
       style="fill:#8000fe;fill-opacity:1;stroke:#7e00fd;stroke-width:0.315026;stroke-miterlimit:4;stroke-dasharray:none;stroke-opacity:1"
       id="path920-3-8-6-9"
       cx="110.34166"
       cy="44.572598"
       rx="0.72756481"
       ry="0.8126359" />
    <path
       style="fill:none;stroke:#7e37bc;stroke-width:0.370042;stroke-dasharray:none;stroke-opacity:1"
       d="m 89.465877,47.117252 c 0.556504,0.300536 1.403823,-0.0973 1.704317,-0.476562 0.02386,-0.03004 0.154567,-0.197485 0.153286,-0.263639 -0.0025,-0.104839 -0.07174,-0.142102 -0.167212,-0.212768 -0.152282,-0.112795 -0.273443,-0.123491 -0.51492,-0.146207 -0.497647,-0.04689 -1.512195,0.72569 -1.165971,1.617227 0.139023,0.358145 0.836623,0.526265 1.260814,0.303393 0.09793,-0.05143 0.376807,-0.218721 0.514372,-0.331239 0.103854,-0.08494 0.284738,-0.206294 0.28693,-0.336679"
       id="path90-69-2"
       sodipodi:nodetypes="cccsccssc" />
    <path
       style="fill:none;fill-opacity:1;stroke:#772ec5;stroke-width:0.406384;stroke-dasharray:none;stroke-opacity:0.889465"
       d="m 118.2598,35.875114 c -0.14426,0.03043 -0.28886,0.08332 -0.43276,0.09136 -0.51338,0.02885 -0.89414,-0.03583 -1.37515,-0.08203 -0.16551,-0.0159 -0.33091,-0.06635 -0.50254,-0.02812 -0.0263,0.0057 0.0514,0.0015 0.077,0.0023"
       id="path27-3-6-9-86" />
    <path
       style="fill:none;stroke:#772ec5;stroke-width:0.361482;stroke-dasharray:none;stroke-opacity:0.889465"
       d="m 117.62303,36.563666 c -0.0462,1.041738 -0.20633,2.122678 -0.0178,3.16076 0.0601,0.331436 0.23256,0.46691 0.496,0.25296"
       id="path53-5-6-1-9-9" />
    <path
       style="fill:none;stroke:#772ec5;stroke-width:0.361482;stroke-dasharray:none;stroke-opacity:0.889465"
       d="m 117.51786,38.63628 c -0.34115,-0.27461 -0.87699,-0.196627 -1.21831,0.02009 -0.62046,0.621 0.21532,1.844949 0.97425,1.318434 0.13964,-0.09684 0.23881,-0.26186 0.34668,-0.390941"
       id="path54-5-3-5-1-13"
       sodipodi:nodetypes="cscc" />
    <path
       style="fill:none;stroke:#000000;stroke-width:0.496496;stroke-dasharray:none;stroke-opacity:0.834197"
       d="m 114.56329,26.107947 c -0.0632,1.437258 -0.28211,2.928601 -0.0244,4.360816 0.0821,0.457276 0.31799,0.644186 0.67818,0.349"
       id="path53-5-6-1-4-4" />
    <path
       style="fill:none;stroke:#000000;stroke-width:0.496496;stroke-dasharray:none;stroke-opacity:0.834197"
       d="m 114.41947,28.967476 c -0.46645,-0.378872 -1.19912,-0.27128 -1.66585,0.02772 -0.84836,0.856777 0.29444,2.545428 1.33214,1.819012 0.19096,-0.133622 0.32655,-0.361286 0.47405,-0.539374"
       id="path54-5-3-5-43-0"
       sodipodi:nodetypes="cscc" />
    <path
       style="fill:none;stroke:#f30000;stroke-width:0.356172;stroke-dasharray:none;stroke-opacity:1"
       d="m 107.52881,21.296003 c -0.043,1.087595 -0.19185,2.216118 -0.0165,3.299897 0.0559,0.346026 0.21625,0.487463 0.46122,0.264095"
       id="path53-5-6-1-9-7-13" />
    <path
       style="fill:none;stroke:#f30000;stroke-width:0.356172;stroke-dasharray:none;stroke-opacity:1"
       d="m 107.33598,23.570453 c -0.31722,-0.286698 -0.8155,-0.205282 -1.13291,0.02097 -0.57696,0.648338 0.20024,1.926166 0.90596,1.376474 0.12985,-0.101134 0.22208,-0.27339 0.32238,-0.408152"
       id="path54-5-3-5-1-1-1"
       sodipodi:nodetypes="cscc" />
    <path
       style="fill:none;stroke:#8337bb;stroke-width:0.347008;stroke-dasharray:none;stroke-opacity:0.917099"
       d="m 94.344431,29.520225 c 0.289609,0.574016 0.203505,0.314938 0.226016,1.314573 0.0074,0.33403 -0.02198,0.665745 -0.03256,0.998651 -0.0058,0.160977 -0.01479,0.321633 -0.01454,0.482968 3.96e-4,0.342049 0.04909,0.429871 0.05958,0.426706 0.05983,-0.01776 0.02091,-0.302224 0.01975,-0.331685 -0.01578,-0.368433 0.30079,-1.220211 0.84624,-1.21476 0.536906,0.0056 0.791863,1.421077 0.278403,1.525879 -0.519931,0.106118 -0.939493,-0.05269 -1.415839,-0.228197"
       id="path38-0-4-0-9" />
    <path
       style="fill:none;fill-opacity:1;stroke:#8337bb;stroke-width:0.380051;stroke-dasharray:none;stroke-opacity:0.917099"
       d="m 96.42222,28.991516 c -0.12721,0.03018 -0.254717,0.08262 -0.381588,0.09062 -0.452686,0.02862 -0.788434,-0.03554 -1.212575,-0.08137 -0.145936,-0.01578 -0.291798,-0.06581 -0.443132,-0.02789 -0.02322,0.0056 0.04537,0.0014 0.06801,0.0023"
       id="path27-3-35-4-6" />
    <path
       style="fill:none;stroke:#8337bb;stroke-width:0.355945;stroke-dasharray:none;stroke-opacity:0.917099"
       d="m 90.524351,34.814944 c 0.27385,0.638739 0.19243,0.350448 0.213715,1.462799 0.0075,0.371695 -0.02073,0.740813 -0.03079,1.111256 -0.0053,0.179129 -0.01397,0.357897 -0.01374,0.537426 3.61e-4,0.380618 0.04641,0.478342 0.05633,0.474819 0.05655,-0.01976 0.01983,-0.336301 0.01863,-0.369085 -0.01495,-0.409976 0.28441,-1.3578 0.800169,-1.351732 0.507662,0.0063 0.748745,1.581313 0.263238,1.697933 -0.491621,0.118083 -0.888341,-0.05863 -1.338752,-0.253928"
       id="path38-0-4-2-4" />
    <path
       style="fill:none;stroke:#000000;stroke-width:0.495236;stroke-dasharray:none;stroke-opacity:0.834197"
       d="m 96.827369,35.321962 c 0.425118,0.796491 0.298725,0.437001 0.331781,1.824068 0.01162,0.463491 -0.03218,0.923774 -0.04787,1.385705 -0.0082,0.223367 -0.02173,0.44629 -0.02138,0.670153 5.57e-4,0.474621 0.07204,0.596481 0.08749,0.592088 0.08784,-0.02464 0.03079,-0.419359 0.02893,-0.460241 -0.02312,-0.511226 0.441501,-1.693134 1.242169,-1.685569 0.788132,0.0078 1.162382,1.971853 0.408665,2.117275 -0.763196,0.147246 -1.379053,-0.07311 -2.078276,-0.316642"
       id="path38-3-0" />
    <path
       style="fill:none;stroke:#7c2cb7;stroke-width:0.324916;stroke-dasharray:none;stroke-opacity:1"
       d="m 110.29565,36.59267 c 0.0942,-0.113559 0.16799,-0.24533 0.31259,-0.327944 0.33424,-0.190985 1.22425,-0.298689 1.40581,0.0902 0.14145,0.302917 -0.13824,1.107885 -0.16178,1.487327 -0.004,0.05359 -0.0331,0.283601 0.055,0.357203 0.13601,0.113692 0.36174,-0.139963 0.41152,-0.206033"
       id="path95-6-1-98" />
    <path
       style="fill:none;stroke:#7c2cb7;stroke-width:0.324916;stroke-dasharray:none;stroke-opacity:1"
       d="m 111.89782,36.985227 c -0.0648,-0.04713 -0.12312,-0.100551 -0.19477,-0.141416 -0.0317,-0.01805 -0.19965,-0.03477 -0.21991,-0.03535 -0.41273,-0.01197 -0.95553,0.27068 -1.01314,0.607122 -0.0359,0.209419 -0.0395,0.797499 0.39897,0.819249 0.0902,0.0045 0.42314,-0.190776 0.44767,-0.203594 0.2019,-0.10552 0.42967,-0.194184 0.59533,-0.334038"
       id="path96-8-96-8" />
    <path
       style="fill:none;stroke:#000000;stroke-width:0.493343;stroke-dasharray:none;stroke-opacity:1"
       d="m 89.294998,29.799827 c -2.739738,-3.127126 -4.741939,4.372181 0.227438,1.118516"
       id="path14-3-2-6-1-95"
       sodipodi:nodetypes="cc" />
    <path
       style="fill:none;stroke:#000000;stroke-width:0.445144;stroke-dasharray:none;stroke-opacity:1"
       d="m 103.61457,37.60141 c 0.12251,-0.163825 0.21859,-0.353924 0.40671,-0.473102 0.43488,-0.27552 1.59285,-0.430899 1.82909,0.130163 0.18402,0.436995 -0.17987,1.598265 -0.21049,2.145659 -0.005,0.07731 -0.0432,0.409133 0.0717,0.515312 0.17699,0.164015 0.47065,-0.201914 0.53544,-0.297228"
       id="path95-6-1-7-2" />
    <path
       style="fill:none;stroke:#000000;stroke-width:0.445144;stroke-dasharray:none;stroke-opacity:1"
       d="m 105.69913,38.167722 c -0.0843,-0.06799 -0.16019,-0.145058 -0.25341,-0.204012 -0.0412,-0.02605 -0.25975,-0.05017 -0.28611,-0.05101 -0.53699,-0.01726 -1.24323,0.390488 -1.31819,0.875849 -0.0467,0.302116 -0.0514,1.1505 0.51911,1.181877 0.11736,0.0064 0.55055,-0.275221 0.58246,-0.293712 0.26269,-0.152227 0.55901,-0.280138 0.77457,-0.481895"
       id="path96-8-96-5-2" />
    <path
       style="fill:none;stroke:#7c2cb7;stroke-width:0.304592;stroke-dasharray:none;stroke-opacity:1"
       d="m 106.38609,31.36138 c 0.0909,-0.103327 0.16226,-0.223223 0.3019,-0.298391 0.32284,-0.173776 1.18244,-0.271774 1.35783,0.08208 0.13659,0.275621 -0.13354,1.008048 -0.15626,1.353298 -0.003,0.04876 -0.0321,0.258044 0.0532,0.325013 0.13138,0.103447 0.34939,-0.12735 0.39747,-0.187464"
       id="path95-6-1-9-6" />
    <path
       style="fill:none;stroke:#7c2cb7;stroke-width:0.304592;stroke-dasharray:none;stroke-opacity:1"
       d="m 107.93356,31.718562 c -0.0626,-0.04288 -0.11894,-0.09149 -0.18813,-0.128674 -0.0306,-0.01643 -0.19284,-0.03164 -0.2124,-0.03216 -0.39864,-0.01089 -0.9229,0.246287 -0.97855,0.552412 -0.0347,0.190547 -0.0381,0.725633 0.38535,0.745422 0.0871,0.004 0.40869,-0.173584 0.43239,-0.185247 0.19502,-0.09601 0.41498,-0.176686 0.575,-0.303937"
       id="path96-8-96-1-5" />
    <path
       style="fill:none;fill-opacity:1;stroke:#772ec5;stroke-width:0.332644;stroke-dasharray:none;stroke-opacity:0.889465"
       d="m 108.48069,30.24687 c -0.12414,0.0237 -0.24857,0.06487 -0.3724,0.07114 -0.44176,0.02246 -0.76941,-0.0279 -1.18333,-0.06387 -0.14242,-0.01239 -0.28475,-0.05167 -0.43243,-0.0219 -0.0226,0.0044 0.0443,0.0011 0.0662,0.0018"
       id="path27-3-6-9-1-0" />
    <path
       style="fill:none;stroke:#973dc8;stroke-width:0.377522;stroke-dasharray:none;stroke-opacity:1"
       d="m 96.830985,23.381599 c -1.78364,-2.812795 -3.08713,3.9327 0.14806,1.006086"
       id="path14-3-2-6-1-2-0"
       sodipodi:nodetypes="cc" />
    <path
       style="fill:none;stroke:#8c00fb;stroke-width:0.360168;stroke-linecap:butt;stroke-linejoin:miter;stroke-miterlimit:4;stroke-dasharray:none;stroke-opacity:1"
       d="m 91.969165,44.730711 c -2.69785,-0.526694 -3.42165,-1.403826 -3.73978,-4.646352"
       id="path1007-7-4-7-2-1-5-2"
       sodipodi:nodetypes="cc" />
    <path
       style="fill:none;stroke:#8c00fb;stroke-width:0.360168;stroke-linecap:butt;stroke-linejoin:miter;stroke-miterlimit:4;stroke-dasharray:none;stroke-opacity:1"
       d="m 114.55755,40.629809 c -0.69867,3.16569 -1.49749,3.943815 -4.22235,4.009359"
       id="path1007-7-4-7-2-1-5-7-6"
       sodipodi:nodetypes="cc" />
    <path
       style="fill:none;stroke:#8c00fb;stroke-width:0.324911;stroke-linecap:butt;stroke-linejoin:miter;stroke-miterlimit:4;stroke-dasharray:none;stroke-opacity:1"
       d="m 109.45576,39.134447 c 1.47349,2.491917 2.63871,3.003508 1.24416,5.46401"
       id="path1007-7-4-3-2-9-3-5-1"
       sodipodi:nodetypes="cc" />
    <path
       style="fill:none;stroke:#8c00fb;stroke-width:0.324679;stroke-linecap:butt;stroke-linejoin:miter;stroke-miterlimit:4;stroke-dasharray:none;stroke-opacity:1"
       d="m 93.034645,39.175517 c -1.58246,1.825369 -2.52371,3.136933 -1.13119,5.597517"
       id="path1007-7-4-3-2-9-3-5-8-85"
       sodipodi:nodetypes="cc" />
    <path
       style="fill:none;stroke:#8c00fb;stroke-width:0.324911;stroke-linecap:butt;stroke-linejoin:miter;stroke-miterlimit:4;stroke-dasharray:none;stroke-opacity:1"
       d="m 92.754615,39.218631 c -0.6411,1.425344 -3.48245,2.070256 -4.20923,0.931074"
       id="path1007-7-4-3-2-9-3-5-3-3"
       sodipodi:nodetypes="cc" />
    <path
       style="fill:none;stroke:#8c00fb;stroke-width:0.324911;stroke-linecap:butt;stroke-linejoin:miter;stroke-miterlimit:4;stroke-dasharray:none;stroke-opacity:1"
       d="m 114.51031,39.780922 c -0.19593,3.291846 -4.3728,0.470396 -5.0996,-0.668787"
       id="path1007-7-4-3-2-9-3-5-3-4-2"
       sodipodi:nodetypes="cc" />
    <path
       style="fill:none;stroke:#000000;stroke-width:0.479616;stroke-dasharray:none;stroke-opacity:1"
       d="m 51.014811,31.124803 c -2.49286,-3.248253 -4.314641,4.541538 0.206945,1.161843"
       id="path14-3-2-6-1-95-3"
       sodipodi:nodetypes="cc" />
    <path
       style="fill:none;stroke:#000000;stroke-width:0.460043;stroke-dasharray:none;stroke-opacity:1"
       d="m 188.46053,30.78235 c -2.27412,-3.275993 -3.93606,4.580321 0.18878,1.171763"
       id="path14-3-2-6-1-95-8"
       sodipodi:nodetypes="cc" />
    <path
       style="fill:none;stroke:#000000;stroke-width:0.281707;stroke-linecap:butt;stroke-linejoin:miter;stroke-miterlimit:4;stroke-dasharray:none;stroke-opacity:1"
       d="m 114.28919,32.076821 -0.0631,2.182732 -1.75169,-1.461459"
       id="path290-3-2-4"
       inkscape:transform-center-x="1.0583057"
       inkscape:transform-center-y="-0.095543508" />
    <path
       style="fill:none;stroke:#000000;stroke-width:0.51579;stroke-dasharray:none;stroke-opacity:1"
       d="m 157.78195,30.924553 c 0.80675,0.402784 2.03507,-0.130418 2.47071,-0.638695 0.0346,-0.04024 0.22406,-0.264672 0.2222,-0.353335 -0.004,-0.140509 -0.10409,-0.190439 -0.24238,-0.285153 -0.22079,-0.151176 -0.39643,-0.165495 -0.7465,-0.19595 -0.72139,-0.06286 -2.1922,0.972577 -1.69026,2.16743 0.20153,0.479993 1.21282,0.705309 1.82779,0.406612 0.14199,-0.06893 0.54622,-0.293134 0.74564,-0.44393 0.15051,-0.113815 0.41278,-0.276479 0.41597,-0.451223"
       id="path90-6-8"
       sodipodi:nodetypes="cscsccssc" />
    <path
       style="fill:none;stroke:#000000;stroke-width:0.49341;stroke-dasharray:none;stroke-opacity:1"
       d="m 18.225367,31.250752 c 0.667318,0.4456 1.683358,-0.144276 2.043697,-0.706589 0.02859,-0.04453 0.185347,-0.292808 0.183805,-0.390895 -0.0034,-0.155446 -0.0861,-0.210684 -0.200496,-0.315465 -0.182623,-0.167247 -0.327902,-0.18309 -0.61748,-0.216781 -0.596716,-0.06954 -1.813319,1.075963 -1.398136,2.397833 0.166697,0.531017 1.00321,0.780284 1.511889,0.449836 0.117457,-0.07627 0.45183,-0.324296 0.616784,-0.491122 0.124501,-0.125922 0.34144,-0.305869 0.344074,-0.499188"
       id="path90-6-5"
       sodipodi:nodetypes="cscsccssc" />
    <path
       style="fill:none;stroke:#000000;stroke-width:0.551793;stroke-dasharray:none;stroke-opacity:0.834197"
       d="m 137.54922,48.247008 c -0.14256,-0.09483 0.46262,-0.136441 0.25718,-0.164779 -0.24185,-0.03336 -1.17098,-0.05217 -1.39905,0.0073 -0.77573,0.202261 -1.31679,0.618828 -1.15846,1.160803 0.2475,0.847246 1.76095,0.412401 2.346,0 0.25487,-0.179656 0.50245,-0.441237 0.51072,-0.685813 0.002,-0.0604 -0.0235,-0.120034 -0.0291,-0.180346 -0.002,-0.0153 0.005,-0.0609 0.008,-0.04572 0.0194,0.08319 -0.0303,0.167441 -0.0291,0.251469 0.005,0.317605 0.0107,0.635459 0.0415,0.952521 0.0815,0.839154 0.42364,1.679751 -0.0997,2.499416 -0.64717,1.013686 -2.35786,0.695662 -2.47888,-0.266708 -0.0144,-0.114067 0.84919,-0.07953 0.86782,-0.07874 1.47076,0.06184 2.05809,0.41134 3.43804,-0.0635"
       id="path21-6"
       sodipodi:nodetypes="cssssssssssscc" />
    <path
       style="fill:none;stroke:#000000;stroke-width:0.528581;stroke-dasharray:none;stroke-opacity:1"
       d="m 100.51311,47.535819 c 0.70228,0.434751 1.77154,-0.14077 2.15078,-0.689388 0.0302,-0.04344 0.19504,-0.285678 0.19342,-0.381377 -0.004,-0.151663 -0.0906,-0.205556 -0.21099,-0.307786 -0.19219,-0.163174 -0.34509,-0.178632 -0.64985,-0.211502 -0.62795,-0.06786 -1.90832,1.049767 -1.47139,2.339454 0.17545,0.518089 1.0558,0.761289 1.59112,0.438884 0.12361,-0.0744 0.47549,-0.316399 0.64908,-0.479165 0.13104,-0.122857 0.35934,-0.298422 0.36211,-0.487034"
       id="path90-6-8-4"
       sodipodi:nodetypes="cscsccssc" />
    <path
       style="fill:none;stroke:#000000;stroke-width:0.310983;stroke-linecap:butt;stroke-linejoin:miter;stroke-miterlimit:4;stroke-dasharray:none;stroke-opacity:1"
       d="m 99.745745,42.993255 1.718325,1.468526 -1.737666,1.291996"
       id="path290-7-0-7-5-6-6-9" />
    <path
       style="fill:none;stroke:#000000;stroke-width:0.314673;stroke-linecap:butt;stroke-linejoin:miter;stroke-miterlimit:4;stroke-dasharray:none;stroke-opacity:1"
       d="m 172.00014,43.30057 1.75962,1.468293 -1.77944,1.291791"
       id="path290-7-0-7-5-6-6-9-5" />
    <path
       style="fill:none;stroke:#000000;stroke-width:0.6;stroke-dasharray:none;stroke-opacity:1"
       d="m 109.79488,57.265787 c -1.54934,-0.511202 1.41708,0.51528 -1.27677,-0.727094 -1.14159,-0.52648 -3.41906,-0.351732 -3.10737,1.284329 0.59894,3.143919 3.74502,0.71202 3.87892,0.03139 0.0362,-0.184042 0.0443,-0.752806 0.008,-0.568824 -0.0823,0.415724 -0.0216,0.928095 -0.0313,1.345395 -0.0318,1.364587 -0.12953,2.635 0.11357,3.976817 0.0551,0.303993 0.24297,0.843446 0.28982,0.840863 0.17999,-0.0098 0.005,-0.51142 -0.12925,-0.662802 -0.24564,-0.276455 -0.49931,-0.560407 -0.79895,-0.732047 -0.67348,-0.385771 -2.28839,0.06815 -2.90995,0.588614 -0.28899,0.241973 -1.1132,1.323888 -0.26134,0.732181"
       id="path5"
       sodipodi:nodetypes="cssscssccssc" />
  </g>
</svg>
